<svg width="966" height="438" viewBox="0 0 966 438" fill="none" xmlns="http://www.w3.org/2000/svg">
<path fill-rule="evenodd" clip-rule="evenodd" d="M231.258 199.237C242.254 204.266 254.873 206.78 269.114 206.78C283.355 206.78 295.703 204.445 306.159 199.775C316.615 194.926 324.636 188.281 330.224 179.84C335.993 171.398 338.877 161.519 338.877 150.205C338.877 138.889 336.173 129.639 330.765 122.456C325.357 115.271 317.966 109.614 308.592 105.483C299.218 101.172 288.402 97.6702 276.145 94.9762L266.139 92.5514C258.027 90.7554 251.267 88.6899 245.859 86.3551C240.451 84.0203 236.305 81.0568 233.421 77.4647C230.716 73.693 229.365 68.9334 229.365 63.1862C229.365 54.7447 232.519 48.1892 238.829 43.5195C245.318 38.6701 254.331 36.2455 265.869 36.2455C273.8 36.2455 280.741 37.4129 286.69 39.7477C292.639 42.0827 297.236 45.7645 300.481 50.7934C303.906 55.8223 305.618 62.3779 305.618 70.4601V80.1588H334.55V70.4601C334.55 57.1694 331.577 46.1238 325.628 37.3231C319.679 28.5225 311.477 21.8772 301.021 17.387C290.746 12.897 279.028 10.6519 265.869 10.6519C252.709 10.6519 241.263 12.8071 231.528 17.1176C221.794 21.4281 214.132 27.5347 208.544 35.4373C203.136 43.3399 200.432 52.859 200.432 63.9944C200.432 74.9503 202.865 83.9305 207.733 90.9351C212.6 97.9397 219.45 103.597 228.283 107.908C237.297 112.039 247.842 115.541 259.92 118.415L269.925 120.839C278.217 122.815 285.338 124.97 291.287 127.305C297.236 129.461 301.832 132.424 305.077 136.196C308.321 139.967 309.944 144.816 309.944 150.743C309.944 159.724 306.52 167.088 299.67 172.835C292.819 178.402 282.634 181.186 269.114 181.186C255.774 181.186 245.048 177.864 236.936 171.218C229.004 164.573 225.038 154.605 225.038 141.313V134.578H196.105V141.313C196.105 155.323 199.17 167.267 205.299 177.145C211.608 186.843 220.262 194.208 231.258 199.237ZM377.917 201.93C385.488 205.164 394.051 206.78 403.605 206.78C408.911 206.78 413.617 206.361 417.722 205.524C417.783 196.65 419.626 188.376 423.757 181.175C419.012 182.979 413.646 183.881 407.661 183.881C399.548 183.881 393.149 182.084 388.462 178.492C383.775 174.901 381.432 170.05 381.432 163.945C381.432 157.838 383.685 153.257 388.192 150.205C392.698 146.972 398.647 145.356 406.039 145.356H444.975V148.049C444.975 153.803 444.061 158.933 442.232 163.44C443.111 162.973 444.007 162.53 444.923 162.111C452.9 158.328 461.674 156.561 471.015 156.561H472.286V117.067C472.286 100.903 467.329 88.4206 457.415 79.6199C447.5 70.8193 433.89 66.419 416.584 66.419C405.407 66.419 395.853 68.2151 387.921 71.8071C379.989 75.3992 373.59 80.1588 368.723 86.0857C364.035 91.8331 360.61 98.2988 358.448 105.483L384.406 113.835C386.028 106.65 389.363 100.813 394.41 96.3232C399.458 91.8331 406.76 89.588 416.313 89.588C426.048 89.588 433.258 91.9229 437.946 96.5925C442.632 101.262 444.975 107.459 444.975 115.182V123.803H404.416C394.681 123.803 385.938 125.329 378.187 128.383C370.616 131.436 364.577 136.016 360.07 142.123C355.743 148.049 353.581 155.592 353.581 164.753C353.581 173.733 355.743 181.366 360.07 187.652C364.577 193.938 370.526 198.697 377.917 201.93ZM472.286 167.787H471.015C463.088 167.787 455.982 169.285 449.694 172.28C443.407 175.141 438.349 179.43 434.523 185.15C431.564 189.625 429.792 194.976 429.205 201.202C433.13 198.937 436.224 196.397 438.486 193.579C441.371 189.987 443.534 186.843 444.975 184.15H449.032V184.958C449.032 185.474 449.029 185.867 449.027 186.159V186.173C449.022 186.664 449.021 186.865 449.041 186.867C449.054 186.868 449.076 186.786 449.113 186.651C449.337 185.82 450.107 182.972 452.653 185.048C454.598 186.634 454.743 186.382 455.132 185.715C455.534 185.023 456.197 183.881 459.413 183.881L466.173 178.492V175.058C468.304 175.31 472.286 174.976 472.286 171.757V167.787ZM452.321 307.929V299.187H480.172V310.77H470.195C463.676 310.77 457.718 309.823 452.321 307.929ZM452.321 319.688C457.978 321.252 463.958 321.995 470.195 321.995H480.172V377.045C480.172 388.539 483.057 397.07 488.825 402.639C494.594 408.026 502.616 410.721 512.89 410.721C524.248 410.721 533.351 406.95 540.201 399.406C547.232 391.683 550.748 380.637 550.748 366.269V299.187H578.599V432.004H551.288V412.068H546.961C544.438 417.456 539.931 422.575 533.441 427.424C526.952 432.094 517.398 434.429 504.779 434.429C494.684 434.429 485.671 432.184 477.739 427.693C469.808 423.203 463.588 416.827 459.081 408.566C454.575 400.304 452.321 390.425 452.321 378.931V319.688ZM533.614 203.008L488.728 70.1907H518.202L553.625 182.533H557.95L593.374 70.1907H622.848L577.961 203.008H533.614ZM662.696 198.429C672.791 203.996 684.598 206.78 698.118 206.78C710.195 206.78 720.111 204.894 727.862 201.122C735.613 197.351 741.833 192.68 746.519 187.113C751.387 181.546 755.082 176.247 757.606 171.218L734.622 159.364C731.738 165.471 727.592 170.859 722.183 175.529C716.955 180.198 709.115 182.533 698.659 182.533C687.482 182.533 678.108 179.121 670.536 172.296C663.146 165.291 659.271 155.952 658.91 144.278H761.392V133.77C761.392 120.3 758.688 108.536 753.279 98.4784C747.872 88.4206 740.301 80.6077 730.566 75.0401C721.012 69.2927 709.836 66.419 697.036 66.419C683.877 66.419 672.249 69.2927 662.154 75.0401C652.24 80.6077 644.488 88.6001 638.9 99.0173C633.312 109.255 630.518 121.288 630.518 135.118V138.351C630.518 152.001 633.312 164.033 638.9 174.451C644.669 184.689 652.601 192.68 662.696 198.429ZM732.999 122.994H659.18C660.622 112.937 664.588 105.124 671.078 99.556C677.748 93.8088 686.311 90.9351 696.766 90.9351C707.222 90.9351 715.694 93.8088 722.183 99.556C728.674 105.124 732.278 112.937 732.999 122.994ZM6.37256 432.004V243.419H85.8705C97.588 243.419 107.863 245.485 116.696 249.616C125.71 253.567 132.649 259.314 137.518 266.857C142.565 274.401 145.089 283.382 145.089 293.798V296.762C145.089 308.616 142.204 318.134 136.436 325.319C130.848 332.323 123.997 337.262 115.885 340.136V344.447C122.735 344.805 128.234 347.141 132.38 351.452C136.526 355.583 138.598 361.599 138.598 369.501V432.004H109.125V373.542C109.125 368.693 107.863 364.832 105.339 361.958C102.816 359.085 98.7597 357.647 93.1714 357.647H35.5759V432.004H6.37256ZM35.5759 331.246H82.6257C93.0812 331.246 101.193 328.642 106.962 323.433C112.73 318.044 115.615 310.771 115.615 301.611V299.455C115.615 290.296 112.73 283.112 106.962 277.903C101.374 272.515 93.2615 269.821 82.6257 269.821H35.5759V331.246ZM195.609 427.424C205.703 432.992 217.511 435.775 231.031 435.775C243.109 435.775 253.024 433.89 260.775 430.118C268.527 426.347 274.747 421.676 279.433 416.109C284.3 410.541 287.996 405.243 290.52 400.214L267.536 388.36C264.652 394.466 260.506 399.855 255.097 404.524C249.869 409.194 242.027 411.529 231.573 411.529C220.396 411.529 211.022 408.116 203.451 401.291C196.06 394.287 192.183 384.948 191.824 373.274H294.305V362.766C294.305 349.296 291.602 337.532 286.193 327.474C280.785 317.416 273.214 309.603 263.48 304.036C253.925 298.289 242.75 295.414 229.95 295.414C216.79 295.414 205.163 298.289 195.068 304.036C185.154 309.603 177.402 317.596 171.814 328.012C166.225 338.25 163.432 350.284 163.432 364.114V367.347C163.432 380.996 166.225 393.029 171.814 403.447C177.583 413.685 185.514 421.676 195.609 427.424ZM265.913 351.99H192.094C193.536 341.932 197.502 334.119 203.991 328.552C210.662 322.805 219.224 319.931 229.68 319.931C240.136 319.931 248.608 322.805 255.097 328.552C261.587 334.119 265.192 341.932 265.913 351.99ZM374.34 435.775C357.394 435.775 343.334 432.004 332.157 424.461C320.981 416.917 314.131 405.512 311.607 390.245L337.566 384.05C339.007 391.413 341.441 397.25 344.866 401.561C348.291 405.872 352.527 408.924 357.575 410.721C362.803 412.517 368.391 413.415 374.34 413.415C383.173 413.415 389.933 411.709 394.62 408.296C399.488 404.883 401.921 400.483 401.921 395.095C401.921 389.707 399.667 385.756 395.161 383.241C390.654 380.727 383.984 378.661 375.151 377.045L365.957 375.428C356.944 373.812 348.743 371.477 341.351 368.423C333.96 365.371 328.101 361.15 323.775 355.761C319.448 350.374 317.286 343.459 317.286 335.017C317.286 322.445 321.972 312.747 331.346 305.922C340.72 298.917 353.158 295.414 368.662 295.414C383.623 295.414 395.882 298.827 405.436 305.652C415.171 312.297 421.479 321.367 424.364 332.863L398.406 340.136C396.784 332.054 393.359 326.396 388.131 323.163C382.903 319.751 376.413 318.044 368.662 318.044C361.09 318.044 355.142 319.482 350.815 322.355C346.488 325.049 344.326 328.91 344.326 333.939C344.326 339.328 346.398 343.279 350.544 345.793C354.871 348.308 360.64 350.194 367.85 351.452L377.315 353.068C386.868 354.684 395.612 356.929 403.544 359.803C411.475 362.676 417.694 366.807 422.202 372.196C426.888 377.584 429.231 384.768 429.231 393.748C429.231 407.038 424.274 417.366 414.36 424.729C404.445 432.094 391.104 435.775 374.34 435.775ZM611.657 432.004V299.187H638.968V314.812H643.294C645.818 310.143 649.874 306.012 655.462 302.419C661.051 298.827 668.622 297.031 678.175 297.031C688.091 297.031 696.022 299.097 701.971 303.228C708.1 307.178 712.698 312.297 715.762 318.584H720.088C723.152 312.477 727.569 307.358 733.338 303.228C739.287 299.097 747.669 297.031 758.485 297.031C767.138 297.031 774.799 298.827 781.469 302.419C788.139 305.832 793.457 311.041 797.423 318.044C801.388 324.87 803.372 333.401 803.372 343.639V432.004H775.52V345.793C775.52 337.712 773.267 331.515 768.76 327.204C764.434 322.715 758.215 320.469 750.102 320.469C741.449 320.469 734.51 323.253 729.282 328.82C724.054 334.389 721.44 342.381 721.44 352.798V432.004H693.589V345.793C693.589 337.712 691.336 331.515 686.829 327.204C682.502 322.715 676.284 320.469 668.171 320.469C659.518 320.469 652.578 323.253 647.35 328.82C642.122 334.389 639.508 342.381 639.508 352.798V432.004H611.657ZM861.081 427.424C871.176 432.992 882.984 435.775 896.504 435.775C908.582 435.775 918.497 433.89 926.248 430.118C933.999 426.347 940.219 421.676 944.906 416.109C949.773 410.541 953.468 405.243 955.992 400.214L933.008 388.36C930.124 394.466 925.978 399.855 920.569 404.524C915.342 409.194 907.5 411.529 897.044 411.529C885.867 411.529 876.495 408.116 868.923 401.291C861.531 394.287 857.656 384.948 857.295 373.274H959.778V362.766C959.778 349.296 957.073 337.532 951.665 327.474C946.258 317.416 938.687 309.603 928.951 304.036C919.398 298.289 908.221 295.414 895.422 295.414C882.263 295.414 870.636 298.289 860.54 304.036C850.625 309.603 842.874 317.596 837.286 328.012C831.698 338.25 828.904 350.284 828.904 364.114V367.347C828.904 380.996 831.698 393.029 837.286 403.447C843.054 413.685 850.986 421.676 861.081 427.424ZM931.386 351.99H857.566C859.008 341.932 862.974 334.119 869.464 328.552C876.134 322.805 884.696 319.931 895.151 319.931C905.607 319.931 914.08 322.805 920.569 328.552C927.06 334.119 930.664 341.932 931.386 351.99Z" fill="white"/>
<path d="M470.195 310.77C461.994 310.77 454.682 309.273 448.258 306.277C441.971 303.281 436.982 298.924 433.293 293.204C429.738 287.484 427.962 280.608 427.962 272.574C427.962 266.582 429.055 261.408 431.242 257.05C433.429 252.692 436.368 249.083 440.058 246.224C443.884 243.229 447.985 241.049 452.359 239.687V237.032C445.799 234.989 440.263 231.449 435.752 226.411C431.242 221.372 428.987 214.564 428.987 205.985C428.987 197.677 430.832 190.734 434.523 185.15C438.349 179.431 443.406 175.141 449.694 172.282C455.981 169.285 463.087 167.788 471.015 167.788H495.206V185.559H474.5C467.667 185.559 461.926 187.397 457.279 191.073C452.633 194.615 450.308 200.129 450.308 207.619C450.308 212.793 451.401 217.015 453.589 220.283C455.912 223.415 458.851 225.799 462.404 227.432C466.095 228.93 470.127 229.68 474.5 229.68H498.487V209.456H519.604V229.68H539.08V247.449H519.604V310.77H470.195ZM473.68 293H498.487V247.449H473.68C466.846 247.449 461.037 249.357 456.255 253.169C451.47 256.845 449.078 262.565 449.078 270.327C449.078 278.089 451.538 283.808 456.459 287.484C461.38 291.162 467.119 293 473.68 293Z" fill="url(#paint0_linear_128_1140)"/>
<defs>
<linearGradient id="paint0_linear_128_1140" x1="483.522" y1="167.788" x2="483.522" y2="310.77" gradientUnits="userSpaceOnUse">
<stop stop-color="#FF1B47"/>
<stop offset="1" stop-color="#C60027"/>
</linearGradient>
</defs>
</svg>
