<svg width="24" height="24" viewBox="0 0 24 24" fill="none" xmlns="http://www.w3.org/2000/svg">
<path d="M22.0611 7.62821L16.3714 1.93946C16.2321 1.80014 16.0668 1.68962 15.8847 1.61421C15.7027 1.53881 15.5077 1.5 15.3106 1.5C15.1136 1.5 14.9185 1.53881 14.7365 1.61421C14.5545 1.68962 14.3892 1.80014 14.2499 1.93946L9.22205 6.98321C8.22267 6.67009 5.9408 6.29227 3.55955 8.21509C3.39541 8.34707 3.26091 8.51213 3.1648 8.69954C3.06869 8.88694 3.01312 9.09249 3.00171 9.30279C2.99031 9.5131 3.02331 9.72345 3.09859 9.92015C3.17386 10.1169 3.28972 10.2955 3.43861 10.4445L7.96861 14.9726L3.96923 18.9692C3.8285 19.1099 3.74944 19.3008 3.74944 19.4998C3.74944 19.6988 3.8285 19.8897 3.96923 20.0304C4.10996 20.1711 4.30084 20.2502 4.49986 20.2502C4.69888 20.2502 4.88975 20.1711 5.03048 20.0304L9.02705 16.031L13.5542 20.5582C13.6934 20.698 13.8588 20.8089 14.0409 20.8847C14.223 20.9604 14.4182 20.9996 14.6155 20.9998C14.6511 20.9998 14.6858 20.9998 14.7214 20.9998C14.9352 20.985 15.1434 20.9243 15.3317 20.8219C15.52 20.7195 15.684 20.5778 15.8127 20.4063C17.6539 17.9595 17.4767 15.9701 17.0492 14.7813L22.062 9.74977C22.2013 9.61042 22.3118 9.445 22.3871 9.26295C22.4624 9.08091 22.5011 8.88581 22.501 8.6888C22.501 8.49179 22.4621 8.29672 22.3866 8.11474C22.3111 7.93277 22.2005 7.76744 22.0611 7.62821ZM20.9999 8.68946L15.6308 14.0763C15.5199 14.1876 15.4468 14.3309 15.4217 14.486C15.3967 14.6411 15.4209 14.8002 15.4911 14.9407C16.378 16.7154 15.3224 18.5585 14.6155 19.4988L4.49986 9.38227C5.63236 8.46915 6.71611 8.22821 7.54486 8.22821C8.07073 8.22103 8.59226 8.32419 9.0758 8.53102C9.21686 8.60162 9.3766 8.62595 9.53229 8.60053C9.68798 8.57512 9.83169 8.50126 9.94298 8.38946L15.3111 2.99977L20.9999 8.68852V8.68946Z" fill="white"/>
</svg>
