<svg width="20" height="20" viewBox="0 0 20 20" fill="none" xmlns="http://www.w3.org/2000/svg">
<path d="M7.49935 7.50249C7.4989 7.3546 7.53782 7.20926 7.61211 7.08138C7.68639 6.9535 7.79337 6.8477 7.92206 6.77483C8.05075 6.70196 8.19652 6.66465 8.34439 6.66672C8.49227 6.6688 8.63692 6.7102 8.76352 6.78666L12.9277 9.28416C13.0517 9.35804 13.1543 9.46286 13.2256 9.58834C13.2969 9.71383 13.3344 9.85567 13.3344 9.99999C13.3344 10.1443 13.2969 10.2862 13.2256 10.4116C13.1543 10.5371 13.0517 10.6419 12.9277 10.7158L8.76352 13.2133C8.63686 13.2898 8.49213 13.3312 8.34418 13.3333C8.19624 13.3353 8.05041 13.2979 7.9217 13.2249C7.79298 13.152 7.68602 13.0461 7.61179 12.9181C7.53756 12.7901 7.49875 12.6446 7.49935 12.4967V7.50249Z" stroke="white" stroke-linecap="round" stroke-linejoin="round"/>
<path d="M9.99935 18.3333C14.6017 18.3333 18.3327 14.6024 18.3327 9.99999C18.3327 5.39762 14.6017 1.66666 9.99935 1.66666C5.39698 1.66666 1.66602 5.39762 1.66602 9.99999C1.66602 14.6024 5.39698 18.3333 9.99935 18.3333Z" stroke="white" stroke-linecap="round" stroke-linejoin="round"/>
</svg>
