<svg width="20" height="20" viewBox="0 0 20 20" fill="none" xmlns="http://www.w3.org/2000/svg">
<path d="M8.5 2C8.78 2 9 2.22 9 2.5V4.5H15V10.5H17C17.28 10.5 17.5 10.72 17.5 11C17.5 11.28 17.28 11.5 17 11.5H15V17.5H12.88C12.2 15.75 10.49 14.5 8.5 14.5C6.51 14.5 4.8 15.75 4.12 17.5H2V15.38C3.75 14.7 5 12.99 5 11C5 9.01 3.76 7.3 2.01 6.62L2 4.5H8V2.5C8 2.22 8.22 2 8.5 2ZM8.5 0C7.12 0 6 1.12 6 2.5H2C0.9 2.5 0.00999999 3.4 0.00999999 4.5V8.3H0.3C1.79 8.3 3 9.51 3 11C3 12.49 1.79 13.7 0.3 13.7H0V17.5C0 18.6 0.9 19.5 2 19.5H5.8V19.2C5.8 17.71 7.01 16.5 8.5 16.5C9.99 16.5 11.2 17.71 11.2 19.2V19.5H15C16.1 19.5 17 18.6 17 17.5V13.5C18.38 13.5 19.5 12.38 19.5 11C19.5 9.62 18.38 8.5 17 8.5V4.5C17 3.4 16.1 2.5 15 2.5H11C11 1.12 9.88 0 8.5 0Z" fill="#D9D9D9"/>
<path fill-rule="evenodd" clip-rule="evenodd" d="M8.5 2C8.78 2 9 2.22 9 2.5V4.5H8V2.5C8 2.22 8.22 2 8.5 2Z" fill="#D9D9D9"/>
<path fill-rule="evenodd" clip-rule="evenodd" d="M15 10.5H17C17.28 10.5 17.5 10.72 17.5 11C17.5 11.28 17.28 11.5 17 11.5H15V10.5Z" fill="#D9D9D9"/>
</svg>
