<svg width="32" height="32" viewBox="0 0 32 32" fill="none" xmlns="http://www.w3.org/2000/svg">
<path d="M20.0011 5C17.9582 5.00157 15.956 5.57142 14.2185 6.64582C12.4809 7.72023 11.0765 9.25682 10.1623 11.0837C9.07479 10.9251 7.96622 10.9923 6.90578 11.2811C5.84535 11.5699 4.85578 12.0741 3.99882 12.7622C3.14186 13.4504 2.43589 14.3077 1.92493 15.2808C1.41397 16.2538 1.109 17.3217 1.02902 18.4179C0.949047 19.514 1.09579 20.6149 1.4601 21.6518C1.82441 22.6887 2.39847 23.6395 3.14647 24.4447C3.89447 25.2499 4.80037 25.8924 5.80767 26.3321C6.81496 26.7717 7.90204 26.9991 9.00109 27H20.0011C22.9185 27 25.7164 25.8411 27.7793 23.7782C29.8422 21.7153 31.0011 18.9174 31.0011 16C31.0011 13.0826 29.8422 10.2847 27.7793 8.22183C25.7164 6.15893 22.9185 5 20.0011 5ZM20.0011 25H9.00109C7.40979 25 5.88367 24.3679 4.75845 23.2426C3.63323 22.1174 3.00109 20.5913 3.00109 19C3.00109 17.4087 3.63323 15.8826 4.75845 14.7574C5.88367 13.6321 7.40979 13 9.00109 13C9.13859 13 9.27609 13 9.41234 13.0138C9.13887 13.9856 9.00049 14.9904 9.00109 16C9.00109 16.2652 9.10645 16.5196 9.29399 16.7071C9.48152 16.8946 9.73588 17 10.0011 17C10.2663 17 10.5207 16.8946 10.7082 16.7071C10.8957 16.5196 11.0011 16.2652 11.0011 16C11.0011 14.22 11.5289 12.4799 12.5179 10.9999C13.5068 9.51983 14.9124 8.36627 16.5569 7.68508C18.2015 7.0039 20.0111 6.82567 21.7569 7.17293C23.5027 7.5202 25.1064 8.37737 26.3651 9.63604C27.6237 10.8947 28.4809 12.4984 28.8282 14.2442C29.1754 15.99 28.9972 17.7996 28.316 19.4442C27.6348 21.0887 26.4813 22.4943 25.0012 23.4832C23.5212 24.4722 21.7811 25 20.0011 25ZM24.7086 13.2925C24.8016 13.3854 24.8753 13.4957 24.9257 13.6171C24.976 13.7385 25.0019 13.8686 25.0019 14C25.0019 14.1314 24.976 14.2615 24.9257 14.3829C24.8753 14.5043 24.8016 14.6146 24.7086 14.7075L18.7086 20.7075C18.6157 20.8005 18.5054 20.8742 18.384 20.9246C18.2626 20.9749 18.1325 21.0008 18.0011 21.0008C17.8697 21.0008 17.7396 20.9749 17.6182 20.9246C17.4968 20.8742 17.3865 20.8005 17.2936 20.7075L14.2936 17.7075C14.106 17.5199 14.0005 17.2654 14.0005 17C14.0005 16.7346 14.106 16.4801 14.2936 16.2925C14.4812 16.1049 14.7357 15.9994 15.0011 15.9994C15.2665 15.9994 15.521 16.1049 15.7086 16.2925L18.0011 18.5863L23.2936 13.2925C23.3865 13.1995 23.4968 13.1258 23.6182 13.0754C23.7395 13.0251 23.8697 12.9992 24.0011 12.9992C24.1325 12.9992 24.2626 13.0251 24.384 13.0754C24.5054 13.1258 24.6157 13.1995 24.7086 13.2925Z" fill="#898F99"/>
</svg>
