<svg width="281" height="193" viewBox="0 0 281 193" fill="none" xmlns="http://www.w3.org/2000/svg">
<rect x="39.1018" y="19.59" width="202.109" height="43.0454" rx="7.78918" fill="#781E2F" stroke="#ED1A43" stroke-width="0.819913"/>
<path d="M63.1241 38.4044C63.1241 37.9471 63.0299 37.5435 62.8416 37.1938C62.6667 36.8441 62.4246 36.5549 62.1153 36.3263C61.8059 36.0976 61.4495 35.9228 61.046 35.8017C60.6425 35.6807 60.2188 35.6201 59.7749 35.6201C59.3849 35.6201 59.015 35.6739 58.6652 35.7816C58.3156 35.8757 57.9995 36.0169 57.7171 36.2052C57.448 36.3935 57.2328 36.6289 57.0714 36.9114C56.91 37.1804 56.8293 37.4964 56.8293 37.8596V37.9806C56.8293 38.3707 56.91 38.707 57.0714 38.9894C57.2328 39.2584 57.4682 39.4938 57.7775 39.6956C58.1004 39.8839 58.4971 40.0453 58.9679 40.1798C59.4386 40.3008 59.9901 40.4085 60.6223 40.5026C62.1019 40.7312 63.1913 41.1684 63.8907 41.814C64.5902 42.4462 64.9399 43.3003 64.9399 44.3763V44.6185C64.9399 45.2237 64.8323 45.7819 64.6171 46.293C64.4154 46.7907 64.106 47.2211 63.689 47.5843C63.2855 47.9474 62.7811 48.2299 62.1759 48.4316C61.5706 48.6334 60.8712 48.7343 60.0776 48.7343C59.1764 48.7343 58.3761 48.6065 57.6767 48.3509C56.9907 48.0819 56.4123 47.7187 55.9416 47.2614C55.4842 46.7907 55.1346 46.2459 54.8924 45.6272C54.6503 44.995 54.5293 44.3091 54.5293 43.5693V42.964H56.2241V43.4482C56.2241 44.6857 56.5603 45.6138 57.2328 46.2325C57.9188 46.8512 58.867 47.1605 60.0776 47.1605C61.1267 47.1605 61.9135 46.9319 62.4381 46.4746C62.9761 46.0038 63.2451 45.3851 63.2451 44.6185V44.4974C63.2451 43.7576 62.9694 43.1927 62.418 42.8026C61.8799 42.4126 60.9989 42.1301 59.7749 41.9552C59.0621 41.8611 58.4165 41.7199 57.8381 41.5316C57.2731 41.3298 56.7889 41.0743 56.3854 40.7649C55.9819 40.4421 55.6726 40.0587 55.4574 39.6149C55.2422 39.171 55.1346 38.6465 55.1346 38.0412V37.7991C55.1346 37.2476 55.2489 36.7432 55.4776 36.2859C55.7062 35.8286 56.0223 35.4318 56.4258 35.0955C56.8427 34.7593 57.3337 34.5038 57.8986 34.3289C58.477 34.1406 59.1091 34.0464 59.7951 34.0464C60.5887 34.0464 61.2948 34.1608 61.9136 34.3894C62.5457 34.6181 63.077 34.9274 63.5074 35.3175C63.9378 35.6941 64.2606 36.1447 64.4758 36.6693C64.7045 37.1804 64.8188 37.7184 64.8188 38.2833V39.1307H63.1241V38.4044ZM75.1748 44.9412H69.1227L68.0936 48.4518H66.2776L70.5551 34.3289H73.7423L78.0201 48.4518H76.2039L75.1748 44.9412ZM72.0274 35.0552L69.5862 43.3676H74.7113L72.27 35.0552H72.0274ZM78.8735 34.3289H80.6891L84.381 47.7255H84.6236L88.3156 34.3289H90.1311L86.1365 48.4518H82.8682L78.8735 34.3289ZM92.5785 34.3289H101.133V35.9026H94.2738V40.5833H101.012V42.157H94.2738V46.8781H101.254V48.4518H92.5785V34.3289ZM116.6 34.3289H126.526V35.9026H122.411V48.4518H120.715V35.9026H116.6V34.3289ZM129.438 34.3289H138.395V35.9026H134.764V46.8781H138.395V48.4518H129.438V46.8781H133.07V35.9026H129.438V34.3289ZM141.025 34.3289H144.253L146.149 47.7255H146.392L148.288 34.3289H151.516V48.4518H149.942V35.0552H149.7L147.804 48.4518H144.737L142.841 35.0552H142.598V48.4518H141.025V34.3289ZM154.346 34.3289H162.901V35.9026H156.042V40.5833H162.78V42.157H156.042V46.8781H163.022V48.4518H154.346V34.3289ZM174.306 38.4044C174.306 37.9471 174.212 37.5435 174.024 37.1938C173.85 36.8441 173.607 36.5549 173.298 36.3263C172.989 36.0976 172.632 35.9228 172.229 35.8017C171.825 35.6807 171.401 35.6201 170.958 35.6201C170.568 35.6201 170.197 35.6739 169.848 35.7816C169.498 35.8757 169.182 36.0169 168.899 36.2052C168.63 36.3935 168.416 36.6289 168.254 36.9114C168.093 37.1804 168.012 37.4964 168.012 37.8596V37.9806C168.012 38.3707 168.093 38.707 168.254 38.9894C168.416 39.2584 168.651 39.4938 168.96 39.6956C169.283 39.8839 169.68 40.0453 170.15 40.1798C170.621 40.3008 171.172 40.4085 171.805 40.5026C173.285 40.7312 174.374 41.1684 175.073 41.814C175.773 42.4462 176.123 43.3003 176.123 44.3763V44.6185C176.123 45.2237 176.015 45.7819 175.8 46.293C175.597 46.7907 175.289 47.2211 174.872 47.5843C174.468 47.9474 173.964 48.2299 173.358 48.4316C172.753 48.6334 172.054 48.7343 171.26 48.7343C170.359 48.7343 169.559 48.6065 168.859 48.3509C168.173 48.0819 167.595 47.7187 167.124 47.2614C166.667 46.7907 166.317 46.2459 166.075 45.6272C165.833 44.995 165.712 44.3091 165.712 43.5693V42.964H167.407V43.4482C167.407 44.6857 167.743 45.6138 168.416 46.2325C169.101 46.8512 170.049 47.1605 171.26 47.1605C172.309 47.1605 173.096 46.9319 173.62 46.4746C174.159 46.0038 174.428 45.3851 174.428 44.6185V44.4974C174.428 43.7576 174.152 43.1927 173.6 42.8026C173.062 42.4126 172.181 42.1301 170.958 41.9552C170.245 41.8611 169.599 41.7199 169.02 41.5316C168.455 41.3298 167.972 41.0743 167.568 40.7649C167.164 40.4421 166.855 40.0587 166.64 39.6149C166.424 39.171 166.317 38.6465 166.317 38.0412V37.7991C166.317 37.2476 166.431 36.7432 166.66 36.2859C166.889 35.8286 167.205 35.4318 167.608 35.0955C168.025 34.7593 168.516 34.5038 169.081 34.3289C169.66 34.1406 170.291 34.0464 170.978 34.0464C171.771 34.0464 172.477 34.1608 173.096 34.3894C173.729 34.6181 174.26 34.9274 174.69 35.3175C175.12 35.6941 175.443 36.1447 175.658 36.6693C175.887 37.1804 176.002 37.7184 176.002 38.2833V39.1307H174.306V38.4044ZM178.368 34.3289H188.294V35.9026H184.179V48.4518H182.484V35.9026H178.368V34.3289ZM198.711 44.9412H192.659L191.63 48.4518H189.814L194.091 34.3289H197.279L201.556 48.4518H199.74L198.711 44.9412ZM195.564 35.0552L193.123 43.3676H198.247L195.806 35.0552H195.564ZM202.793 34.3289H206.021L207.918 47.7255H208.16L210.056 34.3289H213.284V48.4518H211.71V35.0552H211.468L209.572 48.4518H206.505L204.609 35.0552H204.366V48.4518H202.793V34.3289ZM217.628 42.6412V48.4518H215.933V34.3289H220.977C221.704 34.3289 222.335 34.4365 222.873 34.6517C223.412 34.8534 223.856 35.1292 224.205 35.4789C224.569 35.8286 224.838 36.2389 225.013 36.7096C225.2 37.1669 225.295 37.6511 225.295 38.1623V38.7675C225.295 39.2786 225.2 39.7696 225.013 40.2403C224.838 40.7111 224.569 41.1281 224.205 41.4912C223.842 41.8409 223.392 42.1234 222.854 42.3386C222.315 42.5403 221.69 42.6412 220.977 42.6412H217.628ZM217.628 41.0675H220.775C222.658 41.0675 223.6 40.2605 223.6 38.6465V38.2833C223.6 37.5704 223.365 36.9988 222.894 36.5684C222.437 36.1245 221.73 35.9026 220.775 35.9026H217.628V41.0675Z" fill="white"/>
<g clip-path="url(#clip0_659_4076)">
<mask id="mask0_659_4076" style="mask-type:luminance" maskUnits="userSpaceOnUse" x="96" y="41" width="47" height="47">
<path d="M142.322 41.7776H96.375V87.7243H142.322V41.7776Z" fill="white"/>
</mask>
<g mask="url(#mask0_659_4076)">
<path d="M112.599 71.0687C112.168 70.4944 111.738 69.4893 110.876 68.1971C110.445 67.4791 109.153 66.0433 108.722 65.469C108.435 64.8946 108.435 64.6075 108.579 64.0331C108.722 63.1716 109.584 62.4537 110.589 62.4537C111.307 62.4537 112.025 63.0281 112.599 63.4588C112.886 63.746 113.317 64.3203 113.604 64.6075C113.891 64.8946 113.891 65.0382 114.178 65.3254C114.466 65.7561 114.609 66.0433 114.466 65.469C114.322 64.7511 114.178 63.6024 113.891 62.4537C113.748 61.5922 113.604 61.4486 113.461 60.8743C113.317 60.1564 113.173 59.7256 113.03 59.0077C112.886 58.577 112.743 57.4283 112.599 56.854C112.455 56.136 112.455 54.8438 113.03 54.2695C113.461 53.8387 114.322 53.6951 114.896 53.9823C115.614 54.413 116.045 55.4181 116.189 55.8489C116.476 56.5668 116.763 57.5719 116.907 58.7205C117.194 60.1564 117.624 62.3101 117.624 62.7409C117.624 62.1666 117.481 61.1615 117.624 60.5871C117.768 60.1564 118.055 59.582 118.63 59.4385C119.06 59.2949 119.491 59.2949 119.922 59.2949C120.353 59.4385 120.783 59.7256 121.07 60.0128C121.645 60.8743 121.645 62.7409 121.645 62.5973C121.788 62.023 121.788 60.8743 122.076 60.3C122.219 60.0128 122.793 59.7256 123.081 59.582C123.511 59.4385 124.086 59.4385 124.516 59.582C124.804 59.582 125.378 60.0128 125.522 60.3C125.809 60.7307 125.952 62.1666 126.096 62.7409C126.096 62.8845 126.239 62.1666 126.527 61.7358C127.101 60.8743 129.111 60.5871 129.255 62.5973C129.255 63.6024 129.255 63.4588 129.255 64.1767C129.255 64.8946 129.255 65.3254 129.255 65.8997C129.255 66.4741 129.111 67.7663 128.968 68.3406C128.824 68.7714 128.393 69.7765 127.962 70.3508C127.962 70.3508 126.383 72.0738 126.239 72.9353C126.096 73.7968 126.096 73.7968 126.096 74.3712C126.096 74.9455 126.239 75.6634 126.239 75.6634C126.239 75.6634 125.091 75.807 124.516 75.6634C123.942 75.5198 123.224 74.5147 123.081 74.084C122.793 73.6532 122.363 73.6532 122.076 74.084C121.788 74.6583 121.07 75.6634 120.496 75.6634C119.491 75.807 117.481 75.6634 116.045 75.6634C116.045 75.6634 116.332 74.2276 115.758 73.6532C115.327 73.2225 114.609 72.5046 114.178 72.0738L112.599 71.0687Z" fill="white"/>
</g>
<mask id="mask1_659_4076" style="mask-type:luminance" maskUnits="userSpaceOnUse" x="96" y="41" width="47" height="47">
<path d="M142.322 41.7776H96.375V87.7243H142.322V41.7776Z" fill="white"/>
</mask>
<g mask="url(#mask1_659_4076)">
<path d="M112.599 71.0687C112.168 70.4944 111.738 69.4893 110.876 68.1971C110.445 67.4791 109.153 66.0433 108.722 65.469C108.435 64.8946 108.435 64.6075 108.579 64.0331C108.722 63.1716 109.584 62.4537 110.589 62.4537C111.307 62.4537 112.025 63.0281 112.599 63.4588C112.886 63.746 113.317 64.3203 113.604 64.6075C113.891 64.8946 113.891 65.0382 114.178 65.3254C114.466 65.7561 114.609 66.0433 114.466 65.469C114.322 64.7511 114.178 63.6024 113.891 62.4537C113.748 61.5922 113.604 61.4486 113.461 60.8743C113.317 60.1564 113.173 59.7256 113.03 59.0077C112.886 58.577 112.743 57.4283 112.599 56.854C112.455 56.136 112.455 54.8438 113.03 54.2695C113.461 53.8387 114.322 53.6951 114.896 53.9823C115.614 54.413 116.045 55.4181 116.189 55.8489C116.476 56.5668 116.763 57.5719 116.907 58.7205C117.194 60.1564 117.624 62.3101 117.624 62.7409C117.624 62.1666 117.481 61.1615 117.624 60.5871C117.768 60.1564 118.055 59.582 118.63 59.4385C119.06 59.2949 119.491 59.2949 119.922 59.2949C120.353 59.4385 120.783 59.7256 121.07 60.0128C121.645 60.8743 121.645 62.7409 121.645 62.5973C121.788 62.023 121.788 60.8743 122.076 60.3C122.219 60.0128 122.793 59.7256 123.081 59.582C123.511 59.4385 124.086 59.4385 124.516 59.582C124.804 59.582 125.378 60.0128 125.522 60.3C125.809 60.7307 125.952 62.1666 126.096 62.7409C126.096 62.8845 126.239 62.1666 126.527 61.7358C127.101 60.8743 129.111 60.5871 129.255 62.5973C129.255 63.6024 129.255 63.4588 129.255 64.1767C129.255 64.8946 129.255 65.3254 129.255 65.8997C129.255 66.4741 129.111 67.7663 128.968 68.3406C128.824 68.7714 128.393 69.7765 127.962 70.3508C127.962 70.3508 126.383 72.0738 126.239 72.9353C126.096 73.7968 126.096 73.7968 126.096 74.3712C126.096 74.9455 126.239 75.6634 126.239 75.6634C126.239 75.6634 125.091 75.807 124.516 75.6634C123.942 75.5198 123.224 74.5147 123.081 74.084C122.793 73.6532 122.363 73.6532 122.076 74.084C121.788 74.6583 121.07 75.6634 120.496 75.6634C119.491 75.807 117.481 75.6634 116.045 75.6634C116.045 75.6634 116.332 74.2276 115.758 73.6532C115.327 73.2225 114.609 72.5046 114.178 72.0738L112.599 71.0687Z" stroke="black" stroke-width="1.33026" stroke-linecap="round" stroke-linejoin="round"/>
</g>
<mask id="mask2_659_4076" style="mask-type:luminance" maskUnits="userSpaceOnUse" x="96" y="41" width="47" height="47">
<path d="M142.322 41.7776H96.375V87.7243H142.322V41.7776Z" fill="white"/>
</mask>
<g mask="url(#mask2_659_4076)">
<path d="M124.516 71.4998V66.6179" stroke="black" stroke-width="1.33026" stroke-linecap="round"/>
</g>
<mask id="mask3_659_4076" style="mask-type:luminance" maskUnits="userSpaceOnUse" x="96" y="41" width="47" height="47">
<path d="M142.322 41.7776H96.375V87.7243H142.322V41.7776Z" fill="white"/>
</mask>
<g mask="url(#mask3_659_4076)">
<path d="M121.644 71.4998L121.5 66.6179" stroke="black" stroke-width="1.33026" stroke-linecap="round"/>
</g>
<mask id="mask4_659_4076" style="mask-type:luminance" maskUnits="userSpaceOnUse" x="96" y="41" width="47" height="47">
<path d="M142.322 41.7776H96.375V87.7243H142.322V41.7776Z" fill="white"/>
</mask>
<g mask="url(#mask4_659_4076)">
<path d="M118.771 66.6179V71.4998" stroke="black" stroke-width="1.33026" stroke-linecap="round"/>
</g>
</g>
<path d="M134.825 104.702C133.642 104.702 132.638 104.441 131.813 103.918C130.988 103.395 130.358 102.669 129.923 101.74C129.494 100.81 129.28 99.7344 129.28 98.5131C129.28 97.2918 129.494 96.2163 129.923 95.2866C130.358 94.3569 130.988 93.6307 131.813 93.1081C132.638 92.5854 133.642 92.3241 134.825 92.3241C136.013 92.3241 137.02 92.5854 137.845 93.1081C138.67 93.6307 139.297 94.3569 139.727 95.2866C140.156 96.2163 140.37 97.2918 140.37 98.5131C140.37 99.7344 140.156 100.81 139.727 101.74C139.297 102.669 138.67 103.395 137.845 103.918C137.02 104.441 136.013 104.702 134.825 104.702ZM134.825 103.299C135.711 103.305 136.448 103.107 137.036 102.705C137.631 102.298 138.073 101.734 138.365 101.013C138.662 100.293 138.811 99.4593 138.811 98.5131C138.811 97.5614 138.662 96.7279 138.365 96.0127C138.073 95.2976 137.631 94.7392 137.036 94.3376C136.448 93.936 135.711 93.7325 134.825 93.727C133.939 93.7215 133.202 93.9195 132.613 94.3211C132.03 94.7227 131.59 95.2838 131.293 96.0045C130.996 96.7252 130.845 97.5614 130.839 98.5131C130.834 99.4593 130.979 100.29 131.277 101.005C131.574 101.72 132.016 102.281 132.605 102.689C133.199 103.09 133.939 103.294 134.825 103.299ZM142.11 104.454V92.5717H146.805C146.921 92.5717 147.058 92.5772 147.218 92.5882C147.378 92.5937 147.532 92.6102 147.68 92.6377C148.324 92.7367 148.863 92.9568 149.298 93.2979C149.738 93.6389 150.068 94.0708 150.288 94.5934C150.508 95.1105 150.618 95.6854 150.618 96.3181C150.618 97.2368 150.379 98.0345 149.9 98.7111C149.421 99.3823 148.72 99.8031 147.796 99.9737L147.235 100.064H143.579V104.454H142.11ZM149.182 104.454L146.838 99.6188L148.291 99.1732L150.865 104.454H149.182ZM143.579 98.6699H146.756C146.86 98.6699 146.979 98.6644 147.111 98.6534C147.248 98.6424 147.378 98.6231 147.499 98.5956C147.878 98.5076 148.186 98.348 148.423 98.117C148.665 97.8804 148.841 97.6054 148.951 97.2918C149.061 96.9727 149.116 96.6481 149.116 96.3181C149.116 95.988 149.061 95.6662 148.951 95.3526C148.841 95.0335 148.665 94.7557 148.423 94.5191C148.186 94.2826 147.878 94.123 147.499 94.0405C147.378 94.0075 147.248 93.9883 147.111 93.9828C146.979 93.9718 146.86 93.9663 146.756 93.9663H143.579V98.6699Z" fill="#737373"/>
<rect x="34.2395" y="131.031" width="40.8251" height="40.8251" rx="4.08251" fill="#2E2E2E"/>
<rect x="34.2395" y="131.031" width="40.8251" height="40.8251" rx="4.08251" stroke="#2E2E2E" stroke-width="1.16643"/>
<path d="M57.5181 157.24L50.8322 150.177H46.2212V148.688H51.3981L58.084 155.752H62.695V157.24H57.5181ZM57.5181 150.177V148.688H62.695V150.177H57.5181Z" fill="#818181"/>
<rect x="34.2395" y="126.038" width="40.8251" height="40.8251" rx="4.08251" fill="#181818"/>
<rect x="34.2395" y="126.038" width="40.8251" height="40.8251" rx="4.08251" stroke="#2E2E2E" stroke-width="1.16643"/>
<path d="M57.5181 152.247L50.8322 145.183H46.2212V143.695H51.3981L58.084 150.758H62.695V152.247H57.5181ZM57.5181 145.183V143.695H62.695V145.183H57.5181Z" fill="#818181"/>
<rect x="80.8977" y="131.031" width="40.8251" height="40.8251" rx="4.08251" fill="#2E2E2E"/>
<rect x="80.8977" y="131.031" width="40.8251" height="40.8251" rx="4.08251" stroke="#2E2E2E" stroke-width="1.16643"/>
<path d="M101.278 159.747C100.261 159.747 99.3444 159.578 98.5293 159.241C97.7208 158.898 97.0505 158.413 96.5183 157.786C95.9929 157.16 95.6493 156.415 95.4876 155.553L97.0034 155.3C97.2459 156.243 97.7579 156.984 98.5394 157.523C99.3208 158.056 100.254 158.322 101.339 158.322C102.053 158.322 102.693 158.211 103.258 157.988C103.824 157.759 104.269 157.436 104.592 157.018C104.916 156.6 105.077 156.105 105.077 155.533C105.077 155.155 105.01 154.835 104.875 154.573C104.741 154.303 104.562 154.081 104.34 153.906C104.117 153.731 103.875 153.586 103.612 153.471C103.349 153.35 103.093 153.252 102.844 153.178L99.1558 152.077C98.7112 151.949 98.3002 151.787 97.9229 151.592C97.5457 151.39 97.2156 151.15 96.9326 150.874C96.6564 150.591 96.4409 150.261 96.2859 149.884C96.131 149.507 96.0535 149.075 96.0535 148.59C96.0535 147.768 96.2691 147.058 96.7002 146.458C97.1314 145.859 97.7208 145.397 98.4686 145.074C99.2164 144.75 100.069 144.592 101.025 144.599C101.995 144.599 102.861 144.771 103.622 145.114C104.39 145.458 105.024 145.95 105.522 146.59C106.021 147.223 106.351 147.974 106.512 148.843L104.956 149.126C104.855 148.493 104.623 147.944 104.259 147.479C103.895 147.014 103.43 146.657 102.864 146.408C102.305 146.152 101.689 146.02 101.015 146.014C100.362 146.014 99.7789 146.125 99.2669 146.347C98.7617 146.563 98.3608 146.859 98.0644 147.236C97.768 147.614 97.6198 148.045 97.6198 148.53C97.6198 149.022 97.7545 149.416 98.024 149.712C98.3002 150.008 98.637 150.241 99.0345 150.409C99.4387 150.578 99.8295 150.716 100.207 150.824L103.056 151.662C103.353 151.743 103.7 151.861 104.097 152.016C104.501 152.164 104.892 152.38 105.269 152.663C105.653 152.939 105.97 153.303 106.219 153.754C106.469 154.206 106.593 154.778 106.593 155.472C106.593 156.146 106.458 156.749 106.189 157.281C105.926 157.813 105.552 158.261 105.067 158.625C104.589 158.989 104.026 159.265 103.38 159.453C102.74 159.649 102.039 159.747 101.278 159.747Z" fill="#818181"/>
<rect x="80.8977" y="126.038" width="40.8251" height="40.8251" rx="4.08251" fill="#181818"/>
<rect x="80.8977" y="126.038" width="40.8251" height="40.8251" rx="4.08251" stroke="#2E2E2E" stroke-width="1.16643"/>
<path d="M101.278 154.753C100.261 154.753 99.3444 154.585 98.5293 154.248C97.7208 153.905 97.0505 153.42 96.5183 152.793C95.9929 152.166 95.6493 151.422 95.4876 150.56L97.0034 150.307C97.2459 151.25 97.7579 151.991 98.5394 152.53C99.3208 153.062 100.254 153.329 101.339 153.329C102.053 153.329 102.693 153.217 103.258 152.995C103.824 152.766 104.269 152.443 104.592 152.025C104.916 151.607 105.077 151.112 105.077 150.54C105.077 150.162 105.01 149.842 104.875 149.58C104.741 149.31 104.562 149.088 104.34 148.913C104.117 148.737 103.875 148.593 103.612 148.478C103.349 148.357 103.093 148.259 102.844 148.185L99.1558 147.084C98.7112 146.956 98.3002 146.794 97.9229 146.599C97.5457 146.396 97.2156 146.157 96.9326 145.881C96.6564 145.598 96.4409 145.268 96.2859 144.891C96.131 144.513 96.0535 144.082 96.0535 143.597C96.0535 142.775 96.2691 142.065 96.7002 141.465C97.1314 140.866 97.7208 140.404 98.4686 140.081C99.2164 139.757 100.069 139.599 101.025 139.606C101.995 139.606 102.861 139.778 103.622 140.121C104.39 140.465 105.024 140.956 105.522 141.596C106.021 142.23 106.351 142.981 106.512 143.85L104.956 144.133C104.855 143.5 104.623 142.951 104.259 142.486C103.895 142.021 103.43 141.664 102.864 141.415C102.305 141.159 101.689 141.027 101.015 141.02C100.362 141.02 99.7789 141.132 99.2669 141.354C98.7617 141.57 98.3608 141.866 98.0644 142.243C97.768 142.62 97.6198 143.052 97.6198 143.537C97.6198 144.028 97.7545 144.423 98.024 144.719C98.3002 145.015 98.637 145.248 99.0345 145.416C99.4387 145.585 99.8295 145.723 100.207 145.831L103.056 146.669C103.353 146.75 103.7 146.868 104.097 147.023C104.501 147.171 104.892 147.387 105.269 147.67C105.653 147.946 105.97 148.31 106.219 148.761C106.469 149.212 106.593 149.785 106.593 150.479C106.593 151.153 106.458 151.756 106.189 152.288C105.926 152.82 105.552 153.268 105.067 153.632C104.589 153.996 104.026 154.272 103.38 154.46C102.74 154.656 102.039 154.753 101.278 154.753Z" fill="#818181"/>
<path d="M143.995 129.854H146.345L136.32 167.446H133.971L143.995 129.854Z" fill="#2E2E2E"/>
<rect x="158.589" y="131.031" width="40.8251" height="40.8251" rx="4.08251" fill="#2E2E2E"/>
<rect x="158.589" y="131.031" width="40.8251" height="40.8251" rx="4.08251" stroke="#2E2E2E" stroke-width="1.16643"/>
<path d="M167.865 157.943L172.363 144.884H174.131L178.629 157.943H177.242L172.97 145.628H173.496L169.252 157.943H167.865ZM169.869 154.778V153.527H176.616V154.778H169.869ZM180.448 157.943V144.612H181.781V157.943H180.448ZM189.833 157.943C189.282 158.058 188.738 158.104 188.2 158.079C187.668 158.055 187.191 157.94 186.767 157.735C186.35 157.529 186.033 157.209 185.815 156.773C185.64 156.411 185.543 156.045 185.525 155.676C185.513 155.301 185.507 154.875 185.507 154.397V145.428H186.831V154.343C186.831 154.754 186.834 155.099 186.84 155.377C186.852 155.649 186.916 155.891 187.03 156.102C187.248 156.507 187.593 156.749 188.064 156.828C188.542 156.906 189.131 156.888 189.833 156.773V157.943ZM183.412 149.292V148.149H189.833V149.292H183.412Z" fill="#818181"/>
<rect x="158.589" y="126.038" width="40.8251" height="40.8251" rx="4.08251" fill="#181818"/>
<rect x="158.589" y="126.038" width="40.8251" height="40.8251" rx="4.08251" stroke="#2E2E2E" stroke-width="1.16643"/>
<path d="M167.865 152.95L172.363 139.891H174.131L178.629 152.95H177.242L172.97 140.635H173.496L169.252 152.95H167.865ZM169.869 149.785V148.534H176.616V149.785H169.869ZM180.448 152.95V139.619H181.781V152.95H180.448ZM189.833 152.95C189.282 153.065 188.738 153.11 188.2 153.086C187.668 153.062 187.191 152.947 186.767 152.742C186.35 152.536 186.033 152.216 185.815 151.78C185.64 151.418 185.543 151.052 185.525 150.683C185.513 150.308 185.507 149.882 185.507 149.404V140.435H186.831V149.35C186.831 149.761 186.834 150.106 186.84 150.384C186.852 150.656 186.916 150.898 187.03 151.109C187.248 151.514 187.593 151.756 188.064 151.835C188.542 151.913 189.131 151.895 189.833 151.78V152.95ZM183.412 144.299V143.156H189.833V144.299H183.412Z" fill="#818181"/>
<rect x="205.247" y="131.031" width="40.8251" height="40.8251" rx="4.08251" fill="#2E2E2E"/>
<rect x="205.247" y="131.031" width="40.8251" height="40.8251" rx="4.08251" stroke="#2E2E2E" stroke-width="1.16643"/>
<path d="M225.627 159.747C224.61 159.747 223.694 159.578 222.879 159.241C222.07 158.898 221.4 158.413 220.868 157.786C220.342 157.16 219.999 156.415 219.837 155.553L221.353 155.3C221.596 156.243 222.108 156.984 222.889 157.523C223.67 158.056 224.603 158.322 225.688 158.322C226.402 158.322 227.042 158.211 227.608 157.988C228.174 157.759 228.619 157.436 228.942 157.018C229.265 156.6 229.427 156.105 229.427 155.533C229.427 155.155 229.36 154.835 229.225 154.573C229.09 154.303 228.912 154.081 228.689 153.906C228.467 153.731 228.225 153.586 227.962 153.471C227.699 153.35 227.443 153.252 227.194 153.178L223.505 152.077C223.061 151.949 222.65 151.787 222.273 151.592C221.895 151.39 221.565 151.15 221.282 150.874C221.006 150.591 220.79 150.261 220.636 149.884C220.481 149.507 220.403 149.075 220.403 148.59C220.403 147.768 220.619 147.058 221.05 146.458C221.481 145.859 222.07 145.397 222.818 145.074C223.566 144.75 224.418 144.592 225.375 144.599C226.345 144.599 227.211 144.771 227.972 145.114C228.74 145.458 229.373 145.95 229.872 146.59C230.37 147.223 230.7 147.974 230.862 148.843L229.306 149.126C229.205 148.493 228.972 147.944 228.609 147.479C228.245 147.014 227.78 146.657 227.214 146.408C226.655 146.152 226.038 146.02 225.365 146.014C224.711 146.014 224.129 146.125 223.617 146.347C223.111 146.563 222.71 146.859 222.414 147.236C222.118 147.614 221.969 148.045 221.969 148.53C221.969 149.022 222.104 149.416 222.374 149.712C222.65 150.008 222.987 150.241 223.384 150.409C223.788 150.578 224.179 150.716 224.556 150.824L227.406 151.662C227.702 151.743 228.049 151.861 228.447 152.016C228.851 152.164 229.242 152.38 229.619 152.663C230.003 152.939 230.32 153.303 230.569 153.754C230.818 154.206 230.943 154.778 230.943 155.472C230.943 156.146 230.808 156.749 230.539 157.281C230.276 157.813 229.902 158.261 229.417 158.625C228.939 158.989 228.376 159.265 227.729 159.453C227.089 159.649 226.389 159.747 225.627 159.747Z" fill="#818181"/>
<rect x="205.247" y="126.038" width="40.8251" height="40.8251" rx="4.08251" fill="#181818"/>
<rect x="205.247" y="126.038" width="40.8251" height="40.8251" rx="4.08251" stroke="#2E2E2E" stroke-width="1.16643"/>
<path d="M225.627 154.753C224.61 154.753 223.694 154.585 222.879 154.248C222.07 153.905 221.4 153.42 220.868 152.793C220.342 152.166 219.999 151.422 219.837 150.56L221.353 150.307C221.596 151.25 222.108 151.991 222.889 152.53C223.67 153.062 224.603 153.329 225.688 153.329C226.402 153.329 227.042 153.217 227.608 152.995C228.174 152.766 228.619 152.443 228.942 152.025C229.265 151.607 229.427 151.112 229.427 150.54C229.427 150.162 229.36 149.842 229.225 149.58C229.09 149.31 228.912 149.088 228.689 148.913C228.467 148.737 228.225 148.593 227.962 148.478C227.699 148.357 227.443 148.259 227.194 148.185L223.505 147.084C223.061 146.956 222.65 146.794 222.273 146.599C221.895 146.396 221.565 146.157 221.282 145.881C221.006 145.598 220.79 145.268 220.636 144.891C220.481 144.513 220.403 144.082 220.403 143.597C220.403 142.775 220.619 142.065 221.05 141.465C221.481 140.866 222.07 140.404 222.818 140.081C223.566 139.757 224.418 139.599 225.375 139.606C226.345 139.606 227.211 139.778 227.972 140.121C228.74 140.465 229.373 140.956 229.872 141.596C230.37 142.23 230.7 142.981 230.862 143.85L229.306 144.133C229.205 143.5 228.972 142.951 228.609 142.486C228.245 142.021 227.78 141.664 227.214 141.415C226.655 141.159 226.038 141.027 225.365 141.02C224.711 141.02 224.129 141.132 223.617 141.354C223.111 141.57 222.71 141.866 222.414 142.243C222.118 142.62 221.969 143.052 221.969 143.537C221.969 144.028 222.104 144.423 222.374 144.719C222.65 145.015 222.987 145.248 223.384 145.416C223.788 145.585 224.179 145.723 224.556 145.831L227.406 146.669C227.702 146.75 228.049 146.868 228.447 147.023C228.851 147.171 229.242 147.387 229.619 147.67C230.003 147.946 230.32 148.31 230.569 148.761C230.818 149.212 230.943 149.785 230.943 150.479C230.943 151.153 230.808 151.756 230.539 152.288C230.276 152.82 229.902 153.268 229.417 153.632C228.939 153.996 228.376 154.272 227.729 154.46C227.089 154.656 226.389 154.753 225.627 154.753Z" fill="#818181"/>
<defs>
<clipPath id="clip0_659_4076">
<rect width="45.9467" height="45.9467" fill="white" transform="translate(96.375 41.7776)"/>
</clipPath>
</defs>
</svg>
