<svg width="17" height="17" viewBox="0 0 17 17" fill="none" xmlns="http://www.w3.org/2000/svg">
<path d="M10.1885 15.0439C10.1885 15.8479 9.53732 16.4998 8.7334 16.5H5.82129C5.30668 16.5 4.85565 16.2321 4.59668 15.8291L10.1885 12.2578V15.0439ZM15.2852 0C16.089 0.000232534 16.7402 0.652138 16.7402 1.45605V15.0439C16.7402 15.8479 16.089 16.4998 15.2852 16.5H12.373C11.569 16.5 10.917 15.848 10.917 15.0439V11.793L13.1719 10.3535C14.6953 9.38039 14.6953 7.11957 13.1719 6.14648L10.917 4.70605V1.45605C10.917 0.651995 11.569 0 12.373 0H15.2852ZM10.1885 5.10547V11.3945L4.36816 15.1113C4.36714 15.089 4.36523 15.0666 4.36523 15.0439V1.45605C4.36523 1.43312 4.36711 1.41037 4.36816 1.3877L10.1885 5.10547ZM12.7793 6.76074C13.8548 7.44761 13.8548 9.05337 12.7793 9.74023L10.917 10.9287V5.57031L12.7793 6.76074ZM8.7334 0C9.53732 0.000198548 10.1885 0.652117 10.1885 1.45605V4.24121L4.59668 0.669922C4.85572 0.267264 5.30698 0 5.82129 0H8.7334Z" fill="white"/>
<path d="M12.7824 6.7602C13.8578 7.44707 13.8578 9.0529 12.7824 9.73977L2.61718 16.232C1.47753 16.9599 0.00195307 16.1193 0.00195313 14.7422L0.00195363 1.75776C0.00195369 0.380687 1.47753 -0.459885 2.61718 0.267977L12.7824 6.7602Z" fill="url(#paint0_linear_659_5027)"/>
<defs>
<linearGradient id="paint0_linear_659_5027" x1="0.284857" y1="-2.91901e-08" x2="12.8283" y2="16.4088" gradientUnits="userSpaceOnUse">
<stop stop-color="#FF1B47"/>
<stop offset="1" stop-color="#C60027"/>
</linearGradient>
</defs>
</svg>
