<svg width="22" height="22" viewBox="0 0 22 22" fill="none" xmlns="http://www.w3.org/2000/svg">
<path d="M11.3874 2.21448C9.91452 2.21416 8.46663 2.59517 7.18468 3.32045C5.90272 4.04572 4.83037 5.09054 4.07202 6.3532C3.31366 7.61586 2.89512 9.05336 2.85715 10.5258C2.81917 11.9982 3.16305 13.4553 3.85531 14.7554L2.92426 17.5486C2.84714 17.7798 2.83594 18.028 2.89194 18.2653C2.94793 18.5025 3.06889 18.7195 3.24127 18.8919C3.41365 19.0643 3.63062 19.1852 3.86788 19.2412C4.10515 19.2972 4.35331 19.286 4.58457 19.2089L7.37773 18.2778C8.52188 18.8864 9.78963 19.2263 11.0847 19.2717C12.3799 19.3172 13.6683 19.067 14.8523 18.5401C16.0363 18.0133 17.0847 17.2236 17.9179 16.2311C18.7512 15.2385 19.3473 14.0692 19.6612 12.8119C19.975 11.5545 19.9983 10.2422 19.7293 8.97454C19.4602 7.70686 18.9059 6.51713 18.1084 5.49566C17.3109 4.47419 16.2912 3.64783 15.1267 3.0793C13.9621 2.51077 12.6833 2.21501 11.3874 2.21448ZM11.3874 17.9645C10.1184 17.9653 8.8716 17.6312 7.77312 16.9957C7.6927 16.949 7.60328 16.92 7.51079 16.9106C7.4183 16.9011 7.32485 16.9114 7.23664 16.9407L4.16867 17.9645L5.1916 14.8965C5.22109 14.8084 5.23151 14.7149 5.22218 14.6224C5.21284 14.53 5.18397 14.4405 5.13746 14.36C4.34173 12.9843 4.02225 11.3844 4.22858 9.80857C4.4349 8.23273 5.1555 6.76903 6.27859 5.64453C7.40167 4.52002 8.86446 3.79757 10.44 3.58926C12.0156 3.38094 13.6159 3.6984 14.9926 4.49239C16.3694 5.28638 17.4456 6.51251 18.0544 7.98058C18.6632 9.44865 18.7705 11.0766 18.3596 12.6118C17.9488 14.1471 17.0428 15.5039 15.7821 16.4717C14.5215 17.4395 12.9767 17.9642 11.3874 17.9645Z" fill="white"/>
</svg>
