<svg width="416" height="180" viewBox="0 0 416 180" fill="none" xmlns="http://www.w3.org/2000/svg">
<g filter="url(#filter0_d_33_225)">
<rect x="58" y="55" width="300.789" height="64.8359" rx="3.73242" fill="#1C1C1C" shape-rendering="crispEdges"/>
<rect x="58.6221" y="55.6221" width="299.545" height="63.5918" rx="3.11035" stroke="#292929" stroke-width="1.24414" shape-rendering="crispEdges"/>
<path d="M94.4583 83.5481C94.4583 82.8713 94.3189 82.2741 94.0402 81.7565C93.7814 81.2389 93.4231 80.811 92.9653 80.4726C92.5074 80.1341 91.9799 79.8754 91.3827 79.6962C90.7856 79.5171 90.1585 79.4275 89.5016 79.4275C88.9243 79.4275 88.3769 79.5071 87.8593 79.6664C87.3418 79.8057 86.874 80.0147 86.456 80.2934C86.0578 80.5721 85.7393 80.9204 85.5005 81.3385C85.2616 81.7366 85.1421 82.2044 85.1421 82.7419V82.921C85.1421 83.4983 85.2616 83.996 85.5005 84.414C85.7393 84.8121 86.0877 85.1605 86.5455 85.4591C87.0233 85.7378 87.6105 85.9766 88.3072 86.1757C89.0039 86.3548 89.8201 86.5141 90.7557 86.6534C92.9454 86.9918 94.5578 87.6388 95.5929 88.5943C96.628 89.5299 97.1456 90.7939 97.1456 92.3864V92.7448C97.1456 93.6405 96.9864 94.4666 96.6679 95.2231C96.3693 95.9596 95.9114 96.5966 95.2943 97.1341C94.6971 97.6715 93.9506 98.0896 93.0549 98.3882C92.1591 98.6868 91.124 98.8361 89.9495 98.8361C88.6158 98.8361 87.4314 98.647 86.3962 98.2687C85.381 97.8706 84.525 97.3331 83.8283 96.6563C83.1515 95.9596 82.634 95.1534 82.2756 94.2377C81.9173 93.3021 81.7382 92.2869 81.7382 91.1921V90.2963H84.2464V91.0129C84.2464 92.8443 84.744 94.2178 85.7393 95.1335C86.7545 96.0492 88.1579 96.507 89.9495 96.507C91.5022 96.507 92.6667 96.1686 93.443 95.4918C94.2393 94.7951 94.6374 93.8794 94.6374 92.7448V92.5656C94.6374 91.4708 94.2293 90.6347 93.4132 90.0574C92.6169 89.4801 91.3131 89.0621 89.5016 88.8033C88.4466 88.664 87.4911 88.455 86.6351 88.1763C85.799 87.8777 85.0824 87.4995 84.4852 87.0416C83.888 86.5639 83.4302 85.9965 83.1117 85.3396C82.7932 84.6827 82.634 83.9064 82.634 83.0106V82.6523C82.634 81.8361 82.8032 81.0896 83.1416 80.4128C83.48 79.736 83.9478 79.1488 84.545 78.6511C85.162 78.1535 85.8886 77.7753 86.7247 77.5165C87.5807 77.2378 88.5162 77.0984 89.5315 77.0984C90.7059 77.0984 91.751 77.2677 92.6667 77.6061C93.6023 77.9445 94.3886 78.4023 95.0256 78.9796C95.6626 79.537 96.1403 80.2038 96.4588 80.9802C96.7972 81.7366 96.9664 82.5329 96.9664 83.3689V84.623H94.4583V83.5481ZM112.293 93.2225H103.336L101.813 98.418H99.1254L105.456 77.5165H110.173L116.504 98.418H113.816L112.293 93.2225ZM107.635 78.5914L104.022 90.8935H111.607L107.994 78.5914H107.635ZM117.767 77.5165H120.454L125.918 97.3431H126.277L131.741 77.5165H134.428L128.516 98.418H123.679L117.767 77.5165ZM138.05 77.5165H150.711V79.8455H140.559V86.7729H150.532V89.1019H140.559V96.089H150.89V98.418H138.05V77.5165ZM173.601 77.5165H188.292V79.8455H182.201V98.418H179.692V79.8455H173.601V77.5165ZM192.601 77.5165H205.858V79.8455H200.484V96.089H205.858V98.418H192.601V96.089H197.976V79.8455H192.601V77.5165ZM209.749 77.5165H214.527L217.333 97.3431H217.692L220.499 77.5165H225.276V98.418H222.947V78.5914H222.589L219.782 98.418H215.243L212.437 78.5914H212.078V98.418H209.749V77.5165ZM229.465 77.5165H242.126V79.8455H231.974V86.7729H241.947V89.1019H231.974V96.089H242.305V98.418H229.465V77.5165ZM259.005 83.5481C259.005 82.8713 258.866 82.2741 258.587 81.7565C258.329 81.2389 257.97 80.811 257.513 80.4726C257.055 80.1341 256.527 79.8754 255.93 79.6962C255.333 79.5171 254.706 79.4275 254.049 79.4275C253.472 79.4275 252.924 79.5071 252.407 79.6664C251.889 79.8057 251.421 80.0147 251.003 80.2934C250.605 80.5721 250.287 80.9204 250.048 81.3385C249.809 81.7366 249.689 82.2044 249.689 82.7419V82.921C249.689 83.4983 249.809 83.996 250.048 84.414C250.287 84.8121 250.635 85.1605 251.093 85.4591C251.57 85.7378 252.158 85.9766 252.854 86.1757C253.551 86.3548 254.367 86.5141 255.303 86.6534C257.493 86.9918 259.105 87.6388 260.14 88.5943C261.175 89.5299 261.693 90.7939 261.693 92.3864V92.7448C261.693 93.6405 261.534 94.4666 261.215 95.2231C260.916 95.9596 260.459 96.5966 259.842 97.1341C259.244 97.6715 258.498 98.0896 257.602 98.3882C256.706 98.6868 255.671 98.8361 254.497 98.8361C253.163 98.8361 251.979 98.647 250.943 98.2687C249.928 97.8706 249.072 97.3331 248.376 96.6563C247.699 95.9596 247.181 95.1534 246.823 94.2377C246.465 93.3021 246.285 92.2869 246.285 91.1921V90.2963H248.794V91.0129C248.794 92.8443 249.291 94.2178 250.287 95.1335C251.302 96.0492 252.705 96.507 254.497 96.507C256.049 96.507 257.214 96.1686 257.99 95.4918C258.787 94.7951 259.185 93.8794 259.185 92.7448V92.5656C259.185 91.4708 258.777 90.6347 257.96 90.0574C257.164 89.4801 255.86 89.0621 254.049 88.8033C252.994 88.664 252.038 88.455 251.182 88.1763C250.346 87.8777 249.63 87.4995 249.032 87.0416C248.435 86.5639 247.977 85.9965 247.659 85.3396C247.34 84.6827 247.181 83.9064 247.181 83.0106V82.6523C247.181 81.8361 247.35 81.0896 247.689 80.4128C248.027 79.736 248.495 79.1488 249.092 78.6511C249.709 78.1535 250.436 77.7753 251.272 77.5165C252.128 77.2378 253.063 77.0984 254.079 77.0984C255.253 77.0984 256.298 77.2677 257.214 77.6061C258.15 77.9445 258.936 78.4023 259.573 78.9796C260.21 79.537 260.688 80.2038 261.006 80.9802C261.344 81.7366 261.514 82.5329 261.514 83.3689V84.623H259.005V83.5481ZM265.016 77.5165H279.707V79.8455H273.616V98.418H271.108V79.8455H265.016V77.5165ZM295.124 93.2225H286.166L284.643 98.418H281.956L288.286 77.5165H293.004L299.334 98.418H296.646L295.124 93.2225ZM290.466 78.5914L286.853 90.8935H294.437L290.824 78.5914H290.466ZM301.164 77.5165H305.942L308.749 97.3431H309.107L311.914 77.5165H316.691V98.418H314.362V78.5914H314.004L311.197 98.418H306.658L303.852 78.5914H303.493V98.418H301.164V77.5165ZM323.12 89.8185V98.418H320.612V77.5165H328.077C329.152 77.5165 330.087 77.6757 330.883 77.9942C331.68 78.2928 332.337 78.7009 332.854 79.2185C333.392 79.736 333.79 80.3432 334.049 81.0399C334.327 81.7167 334.467 82.4333 334.467 83.1898V84.0855C334.467 84.842 334.327 85.5686 334.049 86.2653C333.79 86.962 333.392 87.5791 332.854 88.1166C332.317 88.6341 331.65 89.0521 330.854 89.3706C330.057 89.6692 329.132 89.8185 328.077 89.8185H323.12ZM323.12 87.4895H327.778C330.565 87.4895 331.958 86.2951 331.958 83.9064V83.3689C331.958 82.3139 331.61 81.4679 330.913 80.8309C330.237 80.174 329.191 79.8455 327.778 79.8455H323.12V87.4895Z" fill="white"/>
</g>
<defs>
<filter id="filter0_d_33_225" x="0.799999" y="0.603199" width="415.189" height="179.236" filterUnits="userSpaceOnUse" color-interpolation-filters="sRGB">
<feFlood flood-opacity="0" result="BackgroundImageFix"/>
<feColorMatrix in="SourceAlpha" type="matrix" values="0 0 0 0 0 0 0 0 0 0 0 0 0 0 0 0 0 0 127 0" result="hardAlpha"/>
<feOffset dy="2.8032"/>
<feGaussianBlur stdDeviation="28.6"/>
<feComposite in2="hardAlpha" operator="out"/>
<feColorMatrix type="matrix" values="0 0 0 0 0 0 0 0 0 0 0 0 0 0 0 0 0 0 0.5 0"/>
<feBlend mode="normal" in2="BackgroundImageFix" result="effect1_dropShadow_33_225"/>
<feBlend mode="normal" in="SourceGraphic" in2="effect1_dropShadow_33_225" result="shape"/>
</filter>
</defs>
</svg>
