<svg width="450" height="226" viewBox="0 0 450 226" fill="none" xmlns="http://www.w3.org/2000/svg">
<g filter="url(#filter0_d_9_127)">
<rect x="58" y="55" width="334.087" height="110.262" rx="5.16352" fill="#1C1C1C" shape-rendering="crispEdges"/>
<rect x="58.8606" y="55.8606" width="332.366" height="108.541" rx="4.30293" stroke="#292929" stroke-width="1.72117" shape-rendering="crispEdges"/>
<path fill-rule="evenodd" clip-rule="evenodd" d="M119.649 121.981L127.296 117.097C132.464 113.797 132.464 106.131 127.296 102.831L119.649 97.947V86.9218C119.649 84.1948 121.859 81.9842 124.587 81.9842H134.463C137.191 81.9842 139.401 84.1948 139.401 86.9218V133.006C139.401 135.733 137.191 137.944 134.463 137.944H124.587C121.859 137.944 119.649 135.733 119.649 133.006V121.981ZM119.649 119.052L125.967 115.017C129.615 112.687 129.615 107.241 125.967 104.912L119.649 100.876V119.052ZM117.179 99.2994V120.629L97.432 133.24C97.4284 133.162 97.4266 133.084 97.4266 133.006V86.9218C97.4266 86.8436 97.4284 86.7657 97.432 86.6884L117.179 99.2994ZM117.179 96.3702V86.9218C117.179 84.1948 114.969 81.9842 112.241 81.9842H102.365C100.62 81.9842 99.0866 82.8889 98.2082 84.2548L117.179 96.3702ZM98.2084 135.673C99.0868 137.039 100.62 137.944 102.365 137.944H112.241C114.969 137.944 117.179 135.733 117.179 133.006V123.558L98.2084 135.673Z" fill="white"/>
<path d="M125.968 104.911C129.615 107.241 129.615 112.687 125.968 115.017L91.4894 137.035C87.6239 139.504 82.6191 136.653 82.6191 131.982L82.6191 87.9457C82.6191 83.2754 87.6239 80.4246 91.4894 82.8932L125.968 104.911Z" fill="url(#paint0_linear_9_127)"/>
<path d="M166.605 95.496V81.9693H161.38V80.1707H173.725V81.9693H168.5V95.496H166.605ZM176.058 81.9693V80.011H177.953V81.9693H176.058ZM176.058 95.496V84.002H177.953V95.496H176.058ZM195.311 95.496L195.322 88.142C195.322 87.2835 195.091 86.613 194.63 86.1305C194.176 85.6409 193.583 85.3962 192.853 85.3962C192.427 85.3962 192.023 85.4955 191.639 85.6942C191.256 85.8857 190.944 86.1908 190.703 86.6094C190.462 87.0209 190.341 87.5495 190.341 88.1952L189.341 87.7907C189.326 86.9748 189.493 86.2618 189.841 85.6516C190.196 85.0343 190.678 84.5554 191.288 84.2148C191.898 83.8743 192.587 83.704 193.353 83.704C194.552 83.704 195.496 84.0694 196.184 84.8002C196.872 85.5239 197.216 86.4994 197.216 87.7269L197.205 95.496H195.311ZM181.561 95.496V84.002H183.253V87.0777H183.466V95.496H181.561ZM188.447 95.496L188.457 88.2165C188.457 87.3367 188.23 86.6484 187.776 86.1518C187.322 85.648 186.719 85.3962 185.967 85.3962C185.222 85.3962 184.619 85.6516 184.158 86.1624C183.696 86.6733 183.466 87.3509 183.466 88.1952L182.465 87.5992C182.465 86.8542 182.643 86.1873 182.998 85.5984C183.352 85.0095 183.835 84.5483 184.445 84.2148C185.055 83.8743 185.747 83.704 186.52 83.704C187.294 83.704 187.968 83.8672 188.542 84.1936C189.117 84.5199 189.561 84.9882 189.873 85.5984C190.185 86.2015 190.341 86.9216 190.341 87.7588L190.33 95.496H188.447ZM205.291 95.8152C204.163 95.8152 203.176 95.5669 202.332 95.0703C201.495 94.5665 200.842 93.8677 200.374 92.9737C199.906 92.0726 199.671 91.0225 199.671 89.8235C199.671 88.5677 199.902 87.4821 200.363 86.5669C200.824 85.6445 201.466 84.935 202.289 84.4383C203.12 83.9346 204.092 83.6827 205.206 83.6827C206.362 83.6827 207.345 83.9488 208.153 84.4809C208.969 85.013 209.58 85.7722 209.984 86.7584C210.396 87.7446 210.573 88.9189 210.516 90.2811H208.6V89.6C208.579 88.1881 208.292 87.1345 207.738 86.4391C207.185 85.7367 206.362 85.3855 205.269 85.3855C204.099 85.3855 203.208 85.7616 202.598 86.5136C201.988 87.2657 201.683 88.3442 201.683 89.749C201.683 91.1041 201.988 92.1542 202.598 92.8992C203.208 93.6442 204.077 94.0167 205.206 94.0167C205.965 94.0167 206.625 93.8428 207.185 93.4952C207.746 93.1475 208.185 92.6473 208.505 91.9946L210.325 92.6225C209.878 93.6371 209.204 94.4246 208.302 94.9851C207.409 95.5385 206.405 95.8152 205.291 95.8152ZM201.044 90.2811V88.7592H209.537V90.2811H201.044ZM217.653 95.8046C216.284 95.8046 215.16 95.5066 214.28 94.9106C213.407 94.3076 212.871 93.4668 212.673 92.3883L214.61 92.0797C214.766 92.7041 215.124 93.2007 215.685 93.5697C216.245 93.9315 216.94 94.1124 217.771 94.1124C218.558 94.1124 219.175 93.9493 219.622 93.6229C220.069 93.2965 220.293 92.8531 220.293 92.2926C220.293 91.9662 220.218 91.7037 220.069 91.505C219.92 91.2993 219.612 91.1077 219.143 90.9303C218.682 90.7529 217.983 90.5401 217.047 90.2918C216.032 90.0221 215.234 89.7419 214.652 89.451C214.07 89.1601 213.655 88.8231 213.407 88.4399C213.159 88.0568 213.035 87.5921 213.035 87.0458C213.035 86.3717 213.219 85.7828 213.588 85.2791C213.957 84.7683 214.471 84.3745 215.131 84.0978C215.798 83.8211 216.571 83.6827 217.451 83.6827C218.324 83.6827 219.104 83.8211 219.793 84.0978C220.481 84.3745 221.034 84.7683 221.453 85.2791C221.879 85.7828 222.13 86.3717 222.209 87.0458L220.272 87.397C220.179 86.7797 219.881 86.2937 219.378 85.9389C218.881 85.5842 218.239 85.3962 217.451 85.3749C216.706 85.3465 216.1 85.4778 215.631 85.7687C215.17 86.0596 214.94 86.4533 214.94 86.95C214.94 87.2267 215.025 87.4644 215.195 87.663C215.372 87.8617 215.695 88.0497 216.164 88.2271C216.639 88.4045 217.327 88.6067 218.228 88.8337C219.243 89.0891 220.041 89.3694 220.623 89.6745C221.212 89.9725 221.63 90.3272 221.879 90.7387C222.127 91.1432 222.251 91.6434 222.251 92.2393C222.251 93.3462 221.843 94.2189 221.027 94.8574C220.211 95.4889 219.087 95.8046 217.653 95.8046ZM231.441 95.496C230.76 95.6308 230.086 95.684 229.419 95.6556C228.76 95.6343 228.171 95.5031 227.653 95.2618C227.135 95.0135 226.741 94.6304 226.471 94.1124C226.244 93.6584 226.12 93.2007 226.099 92.7395C226.085 92.2713 226.078 91.7427 226.078 91.1538V80.8092H227.972V91.0687C227.972 91.5369 227.976 91.9378 227.983 92.2713C227.997 92.6047 228.071 92.8921 228.206 93.1333C228.462 93.5874 228.866 93.8535 229.419 93.9315C229.98 94.0096 230.654 93.9883 231.441 93.8677V95.496ZM223.747 85.5665V84.002H231.441V85.5665H223.747ZM237.468 95.8152C236.609 95.8152 235.889 95.6592 235.308 95.347C234.733 95.0277 234.296 94.6091 233.998 94.0912C233.708 93.5732 233.562 93.0056 233.562 92.3883C233.562 91.7853 233.676 91.2638 233.903 90.8239C234.137 90.3769 234.463 90.008 234.882 89.7171C235.3 89.4191 235.801 89.1849 236.382 89.0146C236.929 88.8656 237.539 88.7379 238.213 88.6315C238.894 88.518 239.582 88.4151 240.278 88.3229C240.973 88.2306 241.622 88.142 242.225 88.0568L241.544 88.4506C241.565 87.4289 241.36 86.6733 240.927 86.1837C240.501 85.6942 239.763 85.4494 238.713 85.4494C238.018 85.4494 237.408 85.609 236.883 85.9283C236.365 86.2405 235.999 86.7513 235.786 87.4608L233.988 86.9181C234.265 85.9106 234.8 85.1195 235.595 84.5448C236.39 83.9701 237.436 83.6827 238.734 83.6827C239.777 83.6827 240.671 83.8707 241.416 84.2468C242.168 84.6157 242.708 85.1762 243.034 85.9283C243.197 86.2831 243.3 86.6697 243.343 87.0883C243.385 87.4999 243.407 87.9326 243.407 88.3867V95.496H241.725V92.7395L242.119 92.995C241.686 93.9244 241.079 94.6268 240.299 95.1022C239.526 95.5776 238.582 95.8152 237.468 95.8152ZM237.755 94.2295C238.436 94.2295 239.025 94.1089 239.522 93.8677C240.026 93.6193 240.43 93.2965 240.735 92.8992C241.04 92.4948 241.239 92.0549 241.331 91.5795C241.438 91.2248 241.494 90.831 241.502 90.3982C241.516 89.9583 241.523 89.6213 241.523 89.3871L242.183 89.6745C241.565 89.7596 240.959 89.8412 240.363 89.9193C239.767 89.9973 239.203 90.0824 238.671 90.1747C238.138 90.2598 237.66 90.3627 237.234 90.4833C236.922 90.5827 236.627 90.7104 236.35 90.8665C236.081 91.0225 235.861 91.2248 235.691 91.4731C235.527 91.7143 235.446 92.0159 235.446 92.3777C235.446 92.6899 235.524 92.9879 235.68 93.2717C235.843 93.5555 236.092 93.7861 236.425 93.9634C236.766 94.1408 237.209 94.2295 237.755 94.2295ZM260.339 95.496L260.35 88.142C260.35 87.2835 260.119 86.613 259.658 86.1305C259.204 85.6409 258.611 85.3962 257.88 85.3962C257.455 85.3962 257.05 85.4955 256.667 85.6942C256.284 85.8857 255.972 86.1908 255.731 86.6094C255.489 87.0209 255.369 87.5495 255.369 88.1952L254.368 87.7907C254.354 86.9748 254.521 86.2618 254.869 85.6516C255.223 85.0343 255.706 84.5554 256.316 84.2148C256.926 83.8743 257.614 83.704 258.381 83.704C259.58 83.704 260.523 84.0694 261.212 84.8002C261.9 85.5239 262.244 86.4994 262.244 87.7269L262.233 95.496H260.339ZM246.589 95.496V84.002H248.281V87.0777H248.494V95.496H246.589ZM253.474 95.496L253.485 88.2165C253.485 87.3367 253.258 86.6484 252.804 86.1518C252.35 85.648 251.747 85.3962 250.995 85.3962C250.25 85.3962 249.647 85.6516 249.185 86.1624C248.724 86.6733 248.494 87.3509 248.494 88.1952L247.493 87.5992C247.493 86.8542 247.671 86.1873 248.025 85.5984C248.38 85.0095 248.863 84.5483 249.473 84.2148C250.083 83.8743 250.775 83.704 251.548 83.704C252.321 83.704 252.995 83.8672 253.57 84.1936C254.145 84.5199 254.588 84.9882 254.901 85.5984C255.213 86.2015 255.369 86.9216 255.369 87.7588L255.358 95.496H253.474ZM270.72 95.8152C269.642 95.8152 268.734 95.5492 267.996 95.0171C267.258 94.4778 266.697 93.7506 266.314 92.8353C265.938 91.913 265.75 90.8806 265.75 89.7383C265.75 88.5818 265.938 87.546 266.314 86.6307C266.697 85.7154 267.258 84.9953 267.996 84.4703C268.741 83.9452 269.653 83.6827 270.731 83.6827C271.795 83.6827 272.711 83.9488 273.477 84.4809C274.25 85.0059 274.843 85.7261 275.254 86.6414C275.666 87.5566 275.871 88.5889 275.871 89.7383C275.871 90.8877 275.666 91.9201 275.254 92.8353C274.843 93.7506 274.25 94.4778 273.477 95.0171C272.711 95.5492 271.792 95.8152 270.72 95.8152ZM265.431 100.604V84.002H267.123V92.4628H267.336V100.604H265.431ZM270.486 94.0805C271.245 94.0805 271.873 93.8889 272.37 93.5058C272.867 93.1227 273.239 92.6047 273.487 91.952C273.736 91.2922 273.86 90.5543 273.86 89.7383C273.86 88.9295 273.736 88.1987 273.487 87.546C273.246 86.8932 272.87 86.3753 272.359 85.9922C271.856 85.609 271.213 85.4175 270.433 85.4175C269.688 85.4175 269.071 85.6019 268.581 85.9709C268.092 86.3327 267.726 86.84 267.485 87.4928C267.244 88.1384 267.123 88.8869 267.123 89.7383C267.123 90.5756 267.24 91.3241 267.474 91.9839C267.716 92.6367 268.085 93.1511 268.581 93.5271C269.078 93.896 269.713 94.0805 270.486 94.0805ZM286.584 95.8152C285.726 95.8152 285.006 95.6592 284.424 95.347C283.849 95.0277 283.413 94.6091 283.115 94.0912C282.824 93.5732 282.678 93.0056 282.678 92.3883C282.678 91.7853 282.792 91.2638 283.019 90.8239C283.253 90.3769 283.58 90.008 283.998 89.7171C284.417 89.4191 284.917 89.1849 285.499 89.0146C286.045 88.8656 286.655 88.7379 287.329 88.6315C288.01 88.518 288.699 88.4151 289.394 88.3229C290.089 88.2306 290.738 88.142 291.342 88.0568L290.66 88.4506C290.682 87.4289 290.476 86.6733 290.043 86.1837C289.617 85.6942 288.88 85.4494 287.829 85.4494C287.134 85.4494 286.524 85.609 285.999 85.9283C285.481 86.2405 285.116 86.7513 284.903 87.4608L283.104 86.9181C283.381 85.9106 283.917 85.1195 284.711 84.5448C285.506 83.9701 286.552 83.6827 287.851 83.6827C288.894 83.6827 289.788 83.8707 290.533 84.2468C291.285 84.6157 291.824 85.1762 292.15 85.9283C292.314 86.2831 292.416 86.6697 292.459 87.0883C292.502 87.4999 292.523 87.9326 292.523 88.3867V95.496H290.841V92.7395L291.235 92.995C290.802 93.9244 290.196 94.6268 289.415 95.1022C288.642 95.5776 287.698 95.8152 286.584 95.8152ZM286.872 94.2295C287.553 94.2295 288.142 94.1089 288.638 93.8677C289.142 93.6193 289.546 93.2965 289.852 92.8992C290.157 92.4948 290.355 92.0549 290.448 91.5795C290.554 91.2248 290.611 90.831 290.618 90.3982C290.632 89.9583 290.639 89.6213 290.639 89.3871L291.299 89.6745C290.682 89.7596 290.075 89.8412 289.479 89.9193C288.883 89.9973 288.319 90.0824 287.787 90.1747C287.255 90.2598 286.776 90.3627 286.35 90.4833C286.038 90.5827 285.744 90.7104 285.467 90.8665C285.197 91.0225 284.977 91.2248 284.807 91.4731C284.644 91.7143 284.562 92.0159 284.562 92.3777C284.562 92.6899 284.64 92.9879 284.796 93.2717C284.96 93.5555 285.208 93.7861 285.541 93.9634C285.882 94.1408 286.325 94.2295 286.872 94.2295ZM300.228 95.8152C299.157 95.8152 298.238 95.5492 297.472 95.0171C296.705 94.4778 296.113 93.7506 295.694 92.8353C295.283 91.9201 295.077 90.8877 295.077 89.7383C295.077 88.5889 295.283 87.5566 295.694 86.6414C296.113 85.7261 296.705 85.0059 297.472 84.4809C298.238 83.9488 299.153 83.6827 300.217 83.6827C301.303 83.6827 302.215 83.9452 302.953 84.4703C303.69 84.9953 304.247 85.7154 304.623 86.6307C305.007 87.546 305.198 88.5818 305.198 89.7383C305.198 90.8806 305.007 91.913 304.623 92.8353C304.247 93.7506 303.69 94.4778 302.953 95.0171C302.215 95.5492 301.307 95.8152 300.228 95.8152ZM300.462 94.0805C301.236 94.0805 301.871 93.896 302.367 93.5271C302.864 93.1511 303.229 92.6367 303.463 91.9839C303.705 91.3241 303.825 90.5756 303.825 89.7383C303.825 88.8869 303.705 88.1384 303.463 87.4928C303.229 86.84 302.867 86.3327 302.378 85.9709C301.888 85.6019 301.267 85.4175 300.515 85.4175C299.735 85.4175 299.089 85.609 298.578 85.9922C298.075 86.3753 297.699 86.8932 297.45 87.546C297.209 88.1987 297.088 88.9295 297.088 89.7383C297.088 90.5543 297.213 91.2922 297.461 91.952C297.709 92.6047 298.082 93.1227 298.578 93.5058C299.082 93.8889 299.71 94.0805 300.462 94.0805ZM303.825 95.496V87.0351H303.612V80.1707H305.517V95.496H303.825ZM313.437 95.8152C312.366 95.8152 311.447 95.5492 310.681 95.0171C309.915 94.4778 309.322 93.7506 308.904 92.8353C308.492 91.9201 308.286 90.8877 308.286 89.7383C308.286 88.5889 308.492 87.5566 308.904 86.6414C309.322 85.7261 309.915 85.0059 310.681 84.4809C311.447 83.9488 312.362 83.6827 313.427 83.6827C314.512 83.6827 315.424 83.9452 316.162 84.4703C316.9 84.9953 317.457 85.7154 317.833 86.6307C318.216 87.546 318.407 88.5818 318.407 89.7383C318.407 90.8806 318.216 91.913 317.833 92.8353C317.457 93.7506 316.9 94.4778 316.162 95.0171C315.424 95.5492 314.516 95.8152 313.437 95.8152ZM313.671 94.0805C314.445 94.0805 315.08 93.896 315.576 93.5271C316.073 93.1511 316.439 92.6367 316.673 91.9839C316.914 91.3241 317.035 90.5756 317.035 89.7383C317.035 88.8869 316.914 88.1384 316.673 87.4928C316.439 86.84 316.077 86.3327 315.587 85.9709C315.098 85.6019 314.477 85.4175 313.725 85.4175C312.944 85.4175 312.299 85.609 311.788 85.9922C311.284 86.3753 310.908 86.8932 310.66 87.546C310.418 88.1987 310.298 88.9295 310.298 89.7383C310.298 90.5543 310.422 91.2922 310.67 91.952C310.919 92.6047 311.291 93.1227 311.788 93.5058C312.291 93.8889 312.919 94.0805 313.671 94.0805ZM317.035 95.496V87.0351H316.822V80.1707H318.727V95.496H317.035ZM327.115 95.8152C325.987 95.8152 325.001 95.5669 324.156 95.0703C323.319 94.5665 322.666 93.8677 322.198 92.9737C321.73 92.0726 321.496 91.0225 321.496 89.8235C321.496 88.5677 321.726 87.4821 322.187 86.5669C322.649 85.6445 323.291 84.935 324.114 84.4383C324.944 83.9346 325.916 83.6827 327.03 83.6827C328.186 83.6827 329.169 83.9488 329.978 84.4809C330.794 85.013 331.404 85.7722 331.808 86.7584C332.22 87.7446 332.397 88.9189 332.34 90.2811H330.425V89.6C330.403 88.1881 330.116 87.1345 329.563 86.4391C329.009 85.7367 328.186 85.3855 327.094 85.3855C325.923 85.3855 325.032 85.7616 324.422 86.5136C323.812 87.2657 323.507 88.3442 323.507 89.749C323.507 91.1041 323.812 92.1542 324.422 92.8992C325.032 93.6442 325.902 94.0167 327.03 94.0167C327.789 94.0167 328.449 93.8428 329.009 93.4952C329.57 93.1475 330.01 92.6473 330.329 91.9946L332.149 92.6225C331.702 93.6371 331.028 94.4246 330.127 94.9851C329.233 95.5385 328.229 95.8152 327.115 95.8152ZM322.868 90.2811V88.7592H331.361V90.2811H322.868ZM339.648 95.8152C338.577 95.8152 337.658 95.5492 336.892 95.0171C336.125 94.4778 335.533 93.7506 335.114 92.8353C334.703 91.9201 334.497 90.8877 334.497 89.7383C334.497 88.5889 334.703 87.5566 335.114 86.6414C335.533 85.7261 336.125 85.0059 336.892 84.4809C337.658 83.9488 338.573 83.6827 339.637 83.6827C340.723 83.6827 341.635 83.9452 342.372 84.4703C343.11 84.9953 343.667 85.7154 344.043 86.6307C344.426 87.546 344.618 88.5818 344.618 89.7383C344.618 90.8806 344.426 91.913 344.043 92.8353C343.667 93.7506 343.11 94.4778 342.372 95.0171C341.635 95.5492 340.726 95.8152 339.648 95.8152ZM339.882 94.0805C340.655 94.0805 341.29 93.896 341.787 93.5271C342.284 93.1511 342.649 92.6367 342.883 91.9839C343.125 91.3241 343.245 90.5756 343.245 89.7383C343.245 88.8869 343.125 88.1384 342.883 87.4928C342.649 86.84 342.287 86.3327 341.798 85.9709C341.308 85.6019 340.687 85.4175 339.935 85.4175C339.155 85.4175 338.509 85.609 337.998 85.9922C337.495 86.3753 337.119 86.8932 336.87 87.546C336.629 88.1987 336.508 88.9295 336.508 89.7383C336.508 90.5543 336.633 91.2922 336.881 91.952C337.129 92.6047 337.502 93.1227 337.998 93.5058C338.502 93.8889 339.13 94.0805 339.882 94.0805ZM343.245 95.496V87.0351H343.032V80.1707H344.937V95.496H343.245ZM356.299 95.8152C355.44 95.8152 354.72 95.6592 354.139 95.347C353.564 95.0277 353.127 94.6091 352.829 94.0912C352.539 93.5732 352.393 93.0056 352.393 92.3883C352.393 91.7853 352.507 91.2638 352.734 90.8239C352.968 90.3769 353.294 90.008 353.713 89.7171C354.131 89.4191 354.632 89.1849 355.213 89.0146C355.76 88.8656 356.37 88.7379 357.044 88.6315C357.725 88.518 358.413 88.4151 359.109 88.3229C359.804 88.2306 360.453 88.142 361.056 88.0568L360.375 88.4506C360.396 87.4289 360.191 86.6733 359.758 86.1837C359.332 85.6942 358.594 85.4494 357.544 85.4494C356.849 85.4494 356.239 85.609 355.714 85.9283C355.196 86.2405 354.83 86.7513 354.617 87.4608L352.819 86.9181C353.096 85.9106 353.631 85.1195 354.426 84.5448C355.221 83.9701 356.267 83.6827 357.565 83.6827C358.608 83.6827 359.502 83.8707 360.247 84.2468C360.999 84.6157 361.539 85.1762 361.865 85.9283C362.028 86.2831 362.131 86.6697 362.174 87.0883C362.216 87.4999 362.238 87.9326 362.238 88.3867V95.496H360.556V92.7395L360.95 92.995C360.517 93.9244 359.91 94.6268 359.13 95.1022C358.357 95.5776 357.413 95.8152 356.299 95.8152ZM356.586 94.2295C357.267 94.2295 357.856 94.1089 358.353 93.8677C358.857 93.6193 359.261 93.2965 359.566 92.8992C359.871 92.4948 360.07 92.0549 360.162 91.5795C360.269 91.2248 360.325 90.831 360.332 90.3982C360.347 89.9583 360.354 89.6213 360.354 89.3871L361.014 89.6745C360.396 89.7596 359.79 89.8412 359.194 89.9193C358.598 89.9973 358.034 90.0824 357.502 90.1747C356.969 90.2598 356.491 90.3627 356.065 90.4833C355.753 90.5827 355.458 90.7104 355.181 90.8665C354.912 91.0225 354.692 91.2248 354.522 91.4731C354.358 91.7143 354.277 92.0159 354.277 92.3777C354.277 92.6899 354.355 92.9879 354.511 93.2717C354.674 93.5555 354.923 93.7861 355.256 93.9634C355.597 94.1408 356.04 94.2295 356.586 94.2295ZM371.848 95.496C371.167 95.6308 370.493 95.684 369.826 95.6556C369.166 95.6343 368.577 95.5031 368.059 95.2618C367.541 95.0135 367.147 94.6304 366.878 94.1124C366.651 93.6584 366.526 93.2007 366.505 92.7395C366.491 92.2713 366.484 91.7427 366.484 91.1538V80.8092H368.378V91.0687C368.378 91.5369 368.382 91.9378 368.389 92.2713C368.403 92.6047 368.478 92.8921 368.612 93.1333C368.868 93.5874 369.272 93.8535 369.826 93.9315C370.386 94.0096 371.06 93.9883 371.848 93.8677V95.496ZM364.153 85.5665V84.002H371.848V85.5665H364.153Z" fill="#AAAAAA"/>
<path d="M163.153 121.595C163.153 118.593 163.871 116.264 165.306 114.608C166.74 112.953 168.738 112.125 171.299 112.125C173.859 112.125 175.857 112.953 177.292 114.608C178.726 116.264 179.444 118.593 179.444 121.595V126.76C179.444 129.85 178.726 132.201 177.292 133.812C175.857 135.424 173.859 136.229 171.299 136.229C168.738 136.229 166.74 135.424 165.306 133.812C163.871 132.201 163.153 129.85 163.153 126.76V121.595ZM171.299 133.713C173.087 133.713 174.422 133.095 175.305 131.859C176.21 130.601 176.662 128.835 176.662 126.561V121.793C176.662 120.734 176.552 119.774 176.331 118.913C176.111 118.03 175.768 117.279 175.305 116.661C174.863 116.021 174.301 115.525 173.616 115.171C172.954 114.818 172.182 114.642 171.299 114.642C170.394 114.642 169.61 114.818 168.948 115.171C168.286 115.525 167.723 116.021 167.259 116.661C166.818 117.279 166.487 118.03 166.266 118.913C166.045 119.774 165.935 120.734 165.935 121.793V126.561C165.935 128.835 166.376 130.601 167.259 131.859C168.164 133.095 169.511 133.713 171.299 133.713ZM169.18 124.177C169.18 123.603 169.389 123.107 169.809 122.687C170.228 122.268 170.725 122.058 171.299 122.058C171.873 122.058 172.369 122.268 172.789 122.687C173.208 123.107 173.418 123.603 173.418 124.177C173.418 124.751 173.208 125.248 172.789 125.667C172.369 126.087 171.873 126.296 171.299 126.296C170.725 126.296 170.228 126.087 169.809 125.667C169.389 125.248 169.18 124.751 169.18 124.177ZM183.427 121.595C183.427 118.593 184.144 116.264 185.579 114.608C187.014 112.953 189.012 112.125 191.572 112.125C194.133 112.125 196.13 112.953 197.565 114.608C199 116.264 199.717 118.593 199.717 121.595V126.76C199.717 129.85 199 132.201 197.565 133.812C196.13 135.424 194.133 136.229 191.572 136.229C189.012 136.229 187.014 135.424 185.579 133.812C184.144 132.201 183.427 129.85 183.427 126.76V121.595ZM191.572 133.713C193.36 133.713 194.696 133.095 195.578 131.859C196.483 130.601 196.936 128.835 196.936 126.561V121.793C196.936 120.734 196.826 119.774 196.605 118.913C196.384 118.03 196.042 117.279 195.578 116.661C195.137 116.021 194.574 115.525 193.89 115.171C193.228 114.818 192.455 114.642 191.572 114.642C190.667 114.642 189.884 114.818 189.221 115.171C188.559 115.525 187.996 116.021 187.533 116.661C187.091 117.279 186.76 118.03 186.539 118.913C186.319 119.774 186.208 120.734 186.208 121.793V126.561C186.208 128.835 186.65 130.601 187.533 131.859C188.438 133.095 189.784 133.713 191.572 133.713ZM189.453 124.177C189.453 123.603 189.663 123.107 190.082 122.687C190.502 122.268 190.998 122.058 191.572 122.058C192.146 122.058 192.643 122.268 193.062 122.687C193.482 123.107 193.691 123.603 193.691 124.177C193.691 124.751 193.482 125.248 193.062 125.667C192.643 126.087 192.146 126.296 191.572 126.296C190.998 126.296 190.502 126.087 190.082 125.667C189.663 125.248 189.453 124.751 189.453 124.177ZM209.528 133.912C209.528 133.272 209.749 132.731 210.19 132.289C210.654 131.826 211.206 131.594 211.846 131.594C212.486 131.594 213.027 131.826 213.468 132.289C213.932 132.731 214.163 133.272 214.163 133.912C214.163 134.552 213.932 135.104 213.468 135.567C213.027 136.009 212.486 136.229 211.846 136.229C211.206 136.229 210.654 136.009 210.19 135.567C209.749 135.104 209.528 134.552 209.528 133.912ZM209.528 121.197C209.528 120.557 209.749 120.016 210.19 119.575C210.654 119.111 211.206 118.88 211.846 118.88C212.486 118.88 213.027 119.111 213.468 119.575C213.932 120.016 214.163 120.557 214.163 121.197C214.163 121.838 213.932 122.389 213.468 122.853C213.027 123.294 212.486 123.515 211.846 123.515C211.206 123.515 210.654 123.294 210.19 122.853C209.749 122.389 209.528 121.838 209.528 121.197ZM223.974 121.595C223.974 118.593 224.692 116.264 226.126 114.608C227.561 112.953 229.559 112.125 232.119 112.125C234.68 112.125 236.677 112.953 238.112 114.608C239.547 116.264 240.264 118.593 240.264 121.595V126.76C240.264 129.85 239.547 132.201 238.112 133.812C236.677 135.424 234.68 136.229 232.119 136.229C229.559 136.229 227.561 135.424 226.126 133.812C224.692 132.201 223.974 129.85 223.974 126.76V121.595ZM232.119 133.713C233.907 133.713 235.243 133.095 236.126 131.859C237.031 130.601 237.483 128.835 237.483 126.561V121.793C237.483 120.734 237.373 119.774 237.152 118.913C236.931 118.03 236.589 117.279 236.126 116.661C235.684 116.021 235.121 115.525 234.437 115.171C233.775 114.818 233.002 114.642 232.119 114.642C231.214 114.642 230.431 114.818 229.768 115.171C229.106 115.525 228.543 116.021 228.08 116.661C227.638 117.279 227.307 118.03 227.086 118.913C226.866 119.774 226.755 120.734 226.755 121.793V126.561C226.755 128.835 227.197 130.601 228.08 131.859C228.985 133.095 230.331 133.713 232.119 133.713ZM230 124.177C230 123.603 230.21 123.107 230.629 122.687C231.049 122.268 231.545 122.058 232.119 122.058C232.693 122.058 233.19 122.268 233.609 122.687C234.029 123.107 234.238 123.603 234.238 124.177C234.238 124.751 234.029 125.248 233.609 125.667C233.19 126.087 232.693 126.296 232.119 126.296C231.545 126.296 231.049 126.087 230.629 125.667C230.21 125.248 230 124.751 230 124.177ZM244.645 112.589H260.141V116.628L250.373 131.395C249.91 132.102 249.556 132.709 249.314 133.216C249.071 133.724 248.949 134.243 248.949 134.773V135.766H246.234V134.574C246.234 134.177 246.267 133.801 246.334 133.448C246.422 133.095 246.543 132.742 246.698 132.389C246.874 132.013 247.084 131.627 247.327 131.23C247.592 130.81 247.901 130.336 248.254 129.806L257.757 115.569V115.171H244.645V112.589ZM270.349 133.912C270.349 133.272 270.569 132.731 271.011 132.289C271.474 131.826 272.026 131.594 272.666 131.594C273.306 131.594 273.847 131.826 274.289 132.289C274.752 132.731 274.984 133.272 274.984 133.912C274.984 134.552 274.752 135.104 274.289 135.567C273.847 136.009 273.306 136.229 272.666 136.229C272.026 136.229 271.474 136.009 271.011 135.567C270.569 135.104 270.349 134.552 270.349 133.912ZM270.349 121.197C270.349 120.557 270.569 120.016 271.011 119.575C271.474 119.111 272.026 118.88 272.666 118.88C273.306 118.88 273.847 119.111 274.289 119.575C274.752 120.016 274.984 120.557 274.984 121.197C274.984 121.838 274.752 122.389 274.289 122.853C273.847 123.294 273.306 123.515 272.666 123.515C272.026 123.515 271.474 123.294 271.011 122.853C270.569 122.389 270.349 121.838 270.349 121.197ZM290.655 124.244V120.403L298.204 115.569V115.171H285.093V112.589H300.588V116.827L293.039 121.661V122.058H294.364C295.247 122.058 296.096 122.202 296.913 122.489C297.73 122.776 298.447 123.195 299.065 123.747C299.705 124.299 300.213 124.983 300.588 125.8C300.986 126.594 301.184 127.521 301.184 128.581V129.177C301.184 130.17 300.986 131.097 300.588 131.958C300.191 132.819 299.639 133.57 298.933 134.21C298.226 134.828 297.388 135.324 296.416 135.7C295.467 136.053 294.43 136.229 293.304 136.229C292.002 136.229 290.832 136.031 289.794 135.633C288.757 135.236 287.874 134.695 287.146 134.011C286.417 133.305 285.854 132.488 285.457 131.561C285.082 130.612 284.894 129.607 284.894 128.548V126.76H287.675V128.349C287.675 129.188 287.808 129.939 288.073 130.601C288.36 131.241 288.746 131.793 289.232 132.256C289.739 132.698 290.335 133.04 291.019 133.283C291.704 133.525 292.443 133.647 293.238 133.647C293.966 133.647 294.64 133.525 295.258 133.283C295.898 133.04 296.45 132.709 296.913 132.289C297.377 131.848 297.741 131.34 298.006 130.766C298.271 130.17 298.403 129.541 298.403 128.879V128.68C298.403 127.29 297.962 126.208 297.079 125.436C296.196 124.641 295.092 124.244 293.768 124.244H290.655ZM321.094 133.183V135.766H305.399V131.793C305.399 130.733 305.576 129.817 305.929 129.045C306.282 128.25 306.779 127.577 307.419 127.025C308.081 126.451 308.876 125.976 309.803 125.601C310.73 125.226 311.779 124.906 312.949 124.641C314.913 124.199 316.326 123.57 317.187 122.754C318.07 121.937 318.511 120.933 318.511 119.741V119.542C318.511 118.946 318.412 118.361 318.213 117.787C318.014 117.213 317.705 116.694 317.286 116.231C316.867 115.767 316.326 115.403 315.664 115.138C315.023 114.851 314.251 114.708 313.346 114.708C311.646 114.708 310.322 115.227 309.373 116.264C308.446 117.301 307.982 118.681 307.982 120.403V121.86H305.201V120.204C305.201 119.145 305.377 118.129 305.731 117.158C306.084 116.187 306.602 115.326 307.287 114.575C307.971 113.825 308.821 113.229 309.836 112.787C310.852 112.346 312.021 112.125 313.346 112.125C314.692 112.125 315.862 112.335 316.856 112.754C317.849 113.152 318.677 113.692 319.339 114.377C320.001 115.039 320.487 115.8 320.796 116.661C321.127 117.5 321.292 118.361 321.292 119.244V119.84C321.292 121.606 320.74 123.118 319.637 124.376C318.533 125.612 316.767 126.495 314.339 127.025C312.22 127.488 310.664 128.106 309.671 128.879C308.677 129.63 308.181 130.733 308.181 132.19V133.183H321.094Z" fill="white"/>
</g>
<defs>
<filter id="filter0_d_9_127" x="0.799999" y="0.603199" width="448.487" height="224.662" filterUnits="userSpaceOnUse" color-interpolation-filters="sRGB">
<feFlood flood-opacity="0" result="BackgroundImageFix"/>
<feColorMatrix in="SourceAlpha" type="matrix" values="0 0 0 0 0 0 0 0 0 0 0 0 0 0 0 0 0 0 127 0" result="hardAlpha"/>
<feOffset dy="2.8032"/>
<feGaussianBlur stdDeviation="28.6"/>
<feComposite in2="hardAlpha" operator="out"/>
<feColorMatrix type="matrix" values="0 0 0 0 0 0 0 0 0 0 0 0 0 0 0 0 0 0 0.5 0"/>
<feBlend mode="normal" in2="BackgroundImageFix" result="effect1_dropShadow_9_127"/>
<feBlend mode="normal" in="SourceGraphic" in2="effect1_dropShadow_9_127" result="shape"/>
</filter>
<linearGradient id="paint0_linear_9_127" x1="83.5786" y1="81.9843" x2="126.119" y2="137.638" gradientUnits="userSpaceOnUse">
<stop stop-color="#FF1B47"/>
<stop offset="1" stop-color="#C60027"/>
</linearGradient>
</defs>
</svg>
