<svg width="22" height="22" viewBox="0 0 22 22" fill="none" xmlns="http://www.w3.org/2000/svg">
<path d="M7.27667 4.83948V2.21448C7.27667 2.04043 7.34293 1.87351 7.46087 1.75044C7.57882 1.62737 7.73878 1.55823 7.90558 1.55823C8.07237 1.55823 8.23234 1.62737 8.35028 1.75044C8.46823 1.87351 8.53448 2.04043 8.53448 2.21448V4.83948C8.53448 5.01353 8.46823 5.18045 8.35028 5.30352C8.23234 5.42659 8.07237 5.49573 7.90558 5.49573C7.73878 5.49573 7.57882 5.42659 7.46087 5.30352C7.34293 5.18045 7.27667 5.01353 7.27667 4.83948ZM10.4212 5.49573C10.588 5.49573 10.748 5.42659 10.8659 5.30352C10.9839 5.18045 11.0501 5.01353 11.0501 4.83948V2.21448C11.0501 2.04043 10.9839 1.87351 10.8659 1.75044C10.748 1.62737 10.588 1.55823 10.4212 1.55823C10.2544 1.55823 10.0944 1.62737 9.9765 1.75044C9.85856 1.87351 9.7923 2.04043 9.7923 2.21448V4.83948C9.7923 5.01353 9.85856 5.18045 9.9765 5.30352C10.0944 5.42659 10.2544 5.49573 10.4212 5.49573ZM12.9368 5.49573C13.1036 5.49573 13.2636 5.42659 13.3815 5.30352C13.4995 5.18045 13.5657 5.01353 13.5657 4.83948V2.21448C13.5657 2.04043 13.4995 1.87351 13.3815 1.75044C13.2636 1.62737 13.1036 1.55823 12.9368 1.55823C12.77 1.55823 12.6101 1.62737 12.4921 1.75044C12.3742 1.87351 12.3079 2.04043 12.3079 2.21448V4.83948C12.3079 5.01353 12.3742 5.18045 12.4921 5.30352C12.6101 5.42659 12.77 5.49573 12.9368 5.49573ZM20.4837 10.0895V10.7457C20.4835 11.5804 20.1784 12.3837 19.6305 12.9919C19.0827 13.6001 18.3333 13.9676 17.5349 14.0196C17.1059 15.2858 16.3755 16.4174 15.4124 17.3082H17.3392C17.506 17.3082 17.6659 17.3774 17.7839 17.5004C17.9018 17.6235 17.9681 17.7904 17.9681 17.9645C17.9681 18.1385 17.9018 18.3054 17.7839 18.4285C17.6659 18.5516 17.506 18.6207 17.3392 18.6207H3.50323C3.33644 18.6207 3.17647 18.5516 3.05853 18.4285C2.94059 18.3054 2.87433 18.1385 2.87433 17.9645C2.87433 17.7904 2.94059 17.6235 3.05853 17.5004C3.17647 17.3774 3.33644 17.3082 3.50323 17.3082H5.4324C4.63 16.5685 3.9871 15.6596 3.54614 14.6415C3.10518 13.6234 2.87621 12.5192 2.87433 11.402V7.46448C2.87433 7.29043 2.94059 7.12351 3.05853 7.00044C3.17647 6.87737 3.33644 6.80823 3.50323 6.80823H17.3392C18.1732 6.80823 18.973 7.15393 19.5627 7.76928C20.1524 8.38464 20.4837 9.21924 20.4837 10.0895ZM16.7103 8.12073H4.13214V11.402C4.13457 12.6342 4.46827 13.8409 5.09531 14.885C5.72235 15.9291 6.61757 16.7687 7.67917 17.3082H13.1632C14.2248 16.7687 15.1201 15.9291 15.7471 14.885C16.3741 13.8409 16.7078 12.6342 16.7103 11.402V8.12073ZM19.2259 10.0895C19.2258 9.68245 19.1048 9.28548 18.8795 8.95318C18.6543 8.62088 18.3358 8.3696 17.9681 8.23393V11.402C17.9676 11.8141 17.9361 12.2255 17.8737 12.6324C18.264 12.5121 18.6064 12.2634 18.8501 11.9234C19.0938 11.5834 19.2256 11.1703 19.2259 10.7457V10.0895Z" fill="white"/>
</svg>
